<?xml version="1.0" encoding="utf-8" standalone="no"?>
<!DOCTYPE svg PUBLIC "-//W3C//DTD SVG 1.1//EN"
  "http://www.w3.org/Graphics/SVG/1.1/DTD/svg11.dtd">
<svg xmlns:xlink="http://www.w3.org/1999/xlink" width="379.98pt" height="243.4752pt" viewBox="0 0 379.98 243.4752" xmlns="http://www.w3.org/2000/svg" version="1.1">
 <metadata>
  <rdf:RDF xmlns:dc="http://purl.org/dc/elements/1.1/" xmlns:cc="http://creativecommons.org/ns#" xmlns:rdf="http://www.w3.org/1999/02/22-rdf-syntax-ns#">
   <cc:Work>
    <dc:type rdf:resource="http://purl.org/dc/dcmitype/StillImage"/>
    <dc:date>2026-07-03T06:58:44.261962</dc:date>
    <dc:format>image/svg+xml</dc:format>
    <dc:creator>
     <cc:Agent>
      <dc:title>Matplotlib v3.8.4, https://matplotlib.org/</dc:title>
     </cc:Agent>
    </dc:creator>
   </cc:Work>
  </rdf:RDF>
 </metadata>
 <defs>
  <style type="text/css">*{stroke-linejoin: round; stroke-linecap: butt}</style>
 </defs>
 <g id="figure_1">
  <g id="patch_1">
   <path d="M 0 243.4752 
L 379.98 243.4752 
L 379.98 0 
L 0 0 
L 0 243.4752 
z
" style="fill: none"/>
  </g>
  <g id="axes_1">
   <g id="patch_2">
    <path d="M 31.1274 65.771602 
Q 31.1274 69.180513 31.1274 70.800569 
" clip-path="url(#p8aa947c07c)" style="fill: none; opacity: 0.85; stroke: #29b6d9; stroke-width: 1.6; stroke-linecap: round"/>
    <path d="M 33.7274 65.600569 
L 31.1274 70.800569 
L 28.5274 65.600569 
z
" clip-path="url(#p8aa947c07c)" style="fill: #29b6d9; opacity: 0.85; stroke: #29b6d9; stroke-width: 1.6; stroke-linecap: round"/>
   </g>
   <g id="patch_3">
    <path d="M 56.8791 66.090489 
L 361.1844 66.090489 
Q 364.8114 66.090489 364.8114 60.937979 
L 364.8114 38.782185 
Q 364.8114 33.629675 361.1844 33.629675 
L 56.8791 33.629675 
Q 53.2521 33.629675 53.2521 38.782185 
L 53.2521 60.937979 
Q 53.2521 66.090489 56.8791 66.090489 
z
" clip-path="url(#p8aa947c07c)" style="fill: #1f2e45; opacity: 0.92; stroke: #29b6d9; stroke-linejoin: miter"/>
   </g>
   <g id="patch_4">
    <path d="M 31.1274 105.961182 
Q 31.1274 109.370093 31.1274 110.990149 
" clip-path="url(#p8aa947c07c)" style="fill: none; opacity: 0.85; stroke: #29b6d9; stroke-width: 1.6; stroke-linecap: round"/>
    <path d="M 33.7274 105.790149 
L 31.1274 110.990149 
L 28.5274 105.790149 
z
" clip-path="url(#p8aa947c07c)" style="fill: #29b6d9; opacity: 0.85; stroke: #29b6d9; stroke-width: 1.6; stroke-linecap: round"/>
   </g>
   <g id="patch_5">
    <path d="M 56.8791 106.280069 
L 361.1844 106.280069 
Q 364.8114 106.280069 364.8114 101.127559 
L 364.8114 78.971765 
Q 364.8114 73.819255 361.1844 73.819255 
L 56.8791 73.819255 
Q 53.2521 73.819255 53.2521 78.971765 
L 53.2521 101.127559 
Q 53.2521 106.280069 56.8791 106.280069 
z
" clip-path="url(#p8aa947c07c)" style="fill: #1f2e45; opacity: 0.92; stroke: #29b6d9; stroke-linejoin: miter"/>
   </g>
   <g id="patch_6">
    <path d="M 31.1274 146.150762 
Q 31.1274 149.559673 31.1274 151.179729 
" clip-path="url(#p8aa947c07c)" style="fill: none; opacity: 0.85; stroke: #29b6d9; stroke-width: 1.6; stroke-linecap: round"/>
    <path d="M 33.7274 145.979729 
L 31.1274 151.179729 
L 28.5274 145.979729 
z
" clip-path="url(#p8aa947c07c)" style="fill: #29b6d9; opacity: 0.85; stroke: #29b6d9; stroke-width: 1.6; stroke-linecap: round"/>
   </g>
   <g id="patch_7">
    <path d="M 56.8791 146.469649 
L 361.1844 146.469649 
Q 364.8114 146.469649 364.8114 141.317139 
L 364.8114 119.161345 
Q 364.8114 114.008835 361.1844 114.008835 
L 56.8791 114.008835 
Q 53.2521 114.008835 53.2521 119.161345 
L 53.2521 141.317139 
Q 53.2521 146.469649 56.8791 146.469649 
z
" clip-path="url(#p8aa947c07c)" style="fill: #1f2e45; opacity: 0.92; stroke: #29b6d9; stroke-linejoin: miter"/>
   </g>
   <g id="patch_8">
    <path d="M 56.8791 186.659229 
L 361.1844 186.659229 
Q 364.8114 186.659229 364.8114 181.506719 
L 364.8114 159.350925 
Q 364.8114 154.198415 361.1844 154.198415 
L 56.8791 154.198415 
Q 53.2521 154.198415 53.2521 159.350925 
L 53.2521 181.506719 
Q 53.2521 186.659229 56.8791 186.659229 
z
" clip-path="url(#p8aa947c07c)" style="fill: #1f2e45; opacity: 0.92; stroke: #29b6d9; stroke-linejoin: miter"/>
   </g>
   <g id="text_1">
    <!-- Shift Brain Flow -->
    <g style="fill: #f4f6fa" transform="translate(8.64 27.676263) scale(0.15 -0.15)">
     <defs>
      <path id="DejaVuSans-Bold-53" d="M 3834 4519 
L 3834 3531 
Q 3450 3703 3084 3790 
Q 2719 3878 2394 3878 
Q 1963 3878 1756 3759 
Q 1550 3641 1550 3391 
Q 1550 3203 1689 3098 
Q 1828 2994 2194 2919 
L 2706 2816 
Q 3484 2659 3812 2340 
Q 4141 2022 4141 1434 
Q 4141 663 3683 286 
Q 3225 -91 2284 -91 
Q 1841 -91 1394 -6 
Q 947 78 500 244 
L 500 1259 
Q 947 1022 1364 901 
Q 1781 781 2169 781 
Q 2563 781 2772 912 
Q 2981 1044 2981 1288 
Q 2981 1506 2839 1625 
Q 2697 1744 2272 1838 
L 1806 1941 
Q 1106 2091 782 2419 
Q 459 2747 459 3303 
Q 459 4000 909 4375 
Q 1359 4750 2203 4750 
Q 2588 4750 2994 4692 
Q 3400 4634 3834 4519 
z
" transform="scale(0.015625)"/>
      <path id="DejaVuSans-Bold-68" d="M 4056 2131 
L 4056 0 
L 2931 0 
L 2931 347 
L 2931 1625 
Q 2931 2084 2911 2256 
Q 2891 2428 2841 2509 
Q 2775 2619 2662 2680 
Q 2550 2741 2406 2741 
Q 2056 2741 1856 2470 
Q 1656 2200 1656 1722 
L 1656 0 
L 538 0 
L 538 4863 
L 1656 4863 
L 1656 2988 
Q 1909 3294 2193 3439 
Q 2478 3584 2822 3584 
Q 3428 3584 3742 3212 
Q 4056 2841 4056 2131 
z
" transform="scale(0.015625)"/>
      <path id="DejaVuSans-Bold-69" d="M 538 3500 
L 1656 3500 
L 1656 0 
L 538 0 
L 538 3500 
z
M 538 4863 
L 1656 4863 
L 1656 3950 
L 538 3950 
L 538 4863 
z
" transform="scale(0.015625)"/>
      <path id="DejaVuSans-Bold-66" d="M 2841 4863 
L 2841 4128 
L 2222 4128 
Q 1984 4128 1890 4042 
Q 1797 3956 1797 3744 
L 1797 3500 
L 2753 3500 
L 2753 2700 
L 1797 2700 
L 1797 0 
L 678 0 
L 678 2700 
L 122 2700 
L 122 3500 
L 678 3500 
L 678 3744 
Q 678 4316 997 4589 
Q 1316 4863 1984 4863 
L 2841 4863 
z
" transform="scale(0.015625)"/>
      <path id="DejaVuSans-Bold-74" d="M 1759 4494 
L 1759 3500 
L 2913 3500 
L 2913 2700 
L 1759 2700 
L 1759 1216 
Q 1759 972 1856 886 
Q 1953 800 2241 800 
L 2816 800 
L 2816 0 
L 1856 0 
Q 1194 0 917 276 
Q 641 553 641 1216 
L 641 2700 
L 84 2700 
L 84 3500 
L 641 3500 
L 641 4494 
L 1759 4494 
z
" transform="scale(0.015625)"/>
      <path id="DejaVuSans-Bold-20" transform="scale(0.015625)"/>
      <path id="DejaVuSans-Bold-42" d="M 2456 2859 
Q 2741 2859 2887 2984 
Q 3034 3109 3034 3353 
Q 3034 3594 2887 3720 
Q 2741 3847 2456 3847 
L 1791 3847 
L 1791 2859 
L 2456 2859 
z
M 2497 819 
Q 2859 819 3042 972 
Q 3225 1125 3225 1434 
Q 3225 1738 3044 1889 
Q 2863 2041 2497 2041 
L 1791 2041 
L 1791 819 
L 2497 819 
z
M 3616 2497 
Q 4003 2384 4215 2081 
Q 4428 1778 4428 1338 
Q 4428 663 3972 331 
Q 3516 0 2584 0 
L 588 0 
L 588 4666 
L 2394 4666 
Q 3366 4666 3802 4372 
Q 4238 4078 4238 3431 
Q 4238 3091 4078 2852 
Q 3919 2613 3616 2497 
z
" transform="scale(0.015625)"/>
      <path id="DejaVuSans-Bold-72" d="M 3138 2547 
Q 2991 2616 2845 2648 
Q 2700 2681 2553 2681 
Q 2122 2681 1889 2404 
Q 1656 2128 1656 1613 
L 1656 0 
L 538 0 
L 538 3500 
L 1656 3500 
L 1656 2925 
Q 1872 3269 2151 3426 
Q 2431 3584 2822 3584 
Q 2878 3584 2943 3579 
Q 3009 3575 3134 3559 
L 3138 2547 
z
" transform="scale(0.015625)"/>
      <path id="DejaVuSans-Bold-61" d="M 2106 1575 
Q 1756 1575 1579 1456 
Q 1403 1338 1403 1106 
Q 1403 894 1545 773 
Q 1688 653 1941 653 
Q 2256 653 2472 879 
Q 2688 1106 2688 1447 
L 2688 1575 
L 2106 1575 
z
M 3816 1997 
L 3816 0 
L 2688 0 
L 2688 519 
Q 2463 200 2181 54 
Q 1900 -91 1497 -91 
Q 953 -91 614 226 
Q 275 544 275 1050 
Q 275 1666 698 1953 
Q 1122 2241 2028 2241 
L 2688 2241 
L 2688 2328 
Q 2688 2594 2478 2717 
Q 2269 2841 1825 2841 
Q 1466 2841 1156 2769 
Q 847 2697 581 2553 
L 581 3406 
Q 941 3494 1303 3539 
Q 1666 3584 2028 3584 
Q 2975 3584 3395 3211 
Q 3816 2838 3816 1997 
z
" transform="scale(0.015625)"/>
      <path id="DejaVuSans-Bold-6e" d="M 4056 2131 
L 4056 0 
L 2931 0 
L 2931 347 
L 2931 1631 
Q 2931 2084 2911 2256 
Q 2891 2428 2841 2509 
Q 2775 2619 2662 2680 
Q 2550 2741 2406 2741 
Q 2056 2741 1856 2470 
Q 1656 2200 1656 1722 
L 1656 0 
L 538 0 
L 538 3500 
L 1656 3500 
L 1656 2988 
Q 1909 3294 2193 3439 
Q 2478 3584 2822 3584 
Q 3428 3584 3742 3212 
Q 4056 2841 4056 2131 
z
" transform="scale(0.015625)"/>
      <path id="DejaVuSans-Bold-46" d="M 588 4666 
L 3834 4666 
L 3834 3756 
L 1791 3756 
L 1791 2888 
L 3713 2888 
L 3713 1978 
L 1791 1978 
L 1791 0 
L 588 0 
L 588 4666 
z
" transform="scale(0.015625)"/>
      <path id="DejaVuSans-Bold-6c" d="M 538 4863 
L 1656 4863 
L 1656 0 
L 538 0 
L 538 4863 
z
" transform="scale(0.015625)"/>
      <path id="DejaVuSans-Bold-6f" d="M 2203 2784 
Q 1831 2784 1636 2517 
Q 1441 2250 1441 1747 
Q 1441 1244 1636 976 
Q 1831 709 2203 709 
Q 2569 709 2762 976 
Q 2956 1244 2956 1747 
Q 2956 2250 2762 2517 
Q 2569 2784 2203 2784 
z
M 2203 3584 
Q 3106 3584 3614 3096 
Q 4122 2609 4122 1747 
Q 4122 884 3614 396 
Q 3106 -91 2203 -91 
Q 1297 -91 786 396 
Q 275 884 275 1747 
Q 275 2609 786 3096 
Q 1297 3584 2203 3584 
z
" transform="scale(0.015625)"/>
      <path id="DejaVuSans-Bold-77" d="M 225 3500 
L 1313 3500 
L 1900 1088 
L 2491 3500 
L 3425 3500 
L 4013 1113 
L 4603 3500 
L 5691 3500 
L 4769 0 
L 3547 0 
L 2956 2406 
L 2369 0 
L 1147 0 
L 225 3500 
z
" transform="scale(0.015625)"/>
     </defs>
     <use xlink:href="#DejaVuSans-Bold-53"/>
     <use xlink:href="#DejaVuSans-Bold-68" x="72.021484"/>
     <use xlink:href="#DejaVuSans-Bold-69" x="143.212891"/>
     <use xlink:href="#DejaVuSans-Bold-66" x="177.490234"/>
     <use xlink:href="#DejaVuSans-Bold-74" x="220.996094"/>
     <use xlink:href="#DejaVuSans-Bold-20" x="268.798828"/>
     <use xlink:href="#DejaVuSans-Bold-42" x="303.613281"/>
     <use xlink:href="#DejaVuSans-Bold-72" x="379.833984"/>
     <use xlink:href="#DejaVuSans-Bold-61" x="429.150391"/>
     <use xlink:href="#DejaVuSans-Bold-69" x="496.630859"/>
     <use xlink:href="#DejaVuSans-Bold-6e" x="530.908203"/>
     <use xlink:href="#DejaVuSans-Bold-20" x="602.099609"/>
     <use xlink:href="#DejaVuSans-Bold-46" x="636.914062"/>
     <use xlink:href="#DejaVuSans-Bold-6c" x="705.224609"/>
     <use xlink:href="#DejaVuSans-Bold-6f" x="739.501953"/>
     <use xlink:href="#DejaVuSans-Bold-77" x="808.203125"/>
    </g>
   </g>
   <g id="patch_9">
    <path d="M 31.1274 60.937979 
C 33.195467 60.937979 35.17911 59.770742 36.641454 57.693338 
C 38.103798 55.615934 38.92545 52.797975 38.92545 49.860082 
C 38.92545 46.922189 38.103798 44.10423 36.641454 42.026826 
C 35.17911 39.949422 33.195467 38.782185 31.1274 38.782185 
C 29.059333 38.782185 27.07569 39.949422 25.613346 42.026826 
C 24.151002 44.10423 23.32935 46.922189 23.32935 49.860082 
C 23.32935 52.797975 24.151002 55.615934 25.613346 57.693338 
C 27.07569 59.770742 29.059333 60.937979 31.1274 60.937979 
z
" clip-path="url(#p8aa947c07c)" style="fill: #f7a21b"/>
   </g>
   <g id="patch_10">
    <path d="M 31.1274 101.127559 
C 33.195467 101.127559 35.17911 99.960322 36.641454 97.882918 
C 38.103798 95.805514 38.92545 92.987555 38.92545 90.049662 
C 38.92545 87.111769 38.103798 84.29381 36.641454 82.216406 
C 35.17911 80.139002 33.195467 78.971765 31.1274 78.971765 
C 29.059333 78.971765 27.07569 80.139002 25.613346 82.216406 
C 24.151002 84.29381 23.32935 87.111769 23.32935 90.049662 
C 23.32935 92.987555 24.151002 95.805514 25.613346 97.882918 
C 27.07569 99.960322 29.059333 101.127559 31.1274 101.127559 
z
" clip-path="url(#p8aa947c07c)" style="fill: #f7a21b"/>
   </g>
   <g id="patch_11">
    <path d="M 31.1274 141.317139 
C 33.195467 141.317139 35.17911 140.149902 36.641454 138.072498 
C 38.103798 135.995094 38.92545 133.177135 38.92545 130.239242 
C 38.92545 127.301349 38.103798 124.48339 36.641454 122.405986 
C 35.17911 120.328582 33.195467 119.161345 31.1274 119.161345 
C 29.059333 119.161345 27.07569 120.328582 25.613346 122.405986 
C 24.151002 124.48339 23.32935 127.301349 23.32935 130.239242 
C 23.32935 133.177135 24.151002 135.995094 25.613346 138.072498 
C 27.07569 140.149902 29.059333 141.317139 31.1274 141.317139 
z
" clip-path="url(#p8aa947c07c)" style="fill: #f7a21b"/>
   </g>
   <g id="patch_12">
    <path d="M 31.1274 181.506719 
C 33.195467 181.506719 35.17911 180.339482 36.641454 178.262078 
C 38.103798 176.184674 38.92545 173.366715 38.92545 170.428822 
C 38.92545 167.490929 38.103798 164.67297 36.641454 162.595566 
C 35.17911 160.518162 33.195467 159.350925 31.1274 159.350925 
C 29.059333 159.350925 27.07569 160.518162 25.613346 162.595566 
C 24.151002 164.67297 23.32935 167.490929 23.32935 170.428822 
C 23.32935 173.366715 24.151002 176.184674 25.613346 178.262078 
C 27.07569 180.339482 29.059333 181.506719 31.1274 181.506719 
z
" clip-path="url(#p8aa947c07c)" style="fill: #f7a21b"/>
   </g>
   <g id="text_2">
    <!-- 1 -->
    <g style="fill: #162032" transform="translate(27.126658 53.033363) scale(0.115 -0.115)">
     <defs>
      <path id="DejaVuSans-Bold-31" d="M 750 831 
L 1813 831 
L 1813 3847 
L 722 3622 
L 722 4441 
L 1806 4666 
L 2950 4666 
L 2950 831 
L 4013 831 
L 4013 0 
L 750 0 
L 750 831 
z
" transform="scale(0.015625)"/>
     </defs>
     <use xlink:href="#DejaVuSans-Bold-31"/>
    </g>
   </g>
   <g id="text_3">
    <!-- Schedule cron job -->
    <g style="fill: #f4f6fa" transform="translate(64.8585 52.757426) scale(0.105 -0.105)">
     <defs>
      <path id="DejaVuSans-53" d="M 3425 4513 
L 3425 3897 
Q 3066 4069 2747 4153 
Q 2428 4238 2131 4238 
Q 1616 4238 1336 4038 
Q 1056 3838 1056 3469 
Q 1056 3159 1242 3001 
Q 1428 2844 1947 2747 
L 2328 2669 
Q 3034 2534 3370 2195 
Q 3706 1856 3706 1288 
Q 3706 609 3251 259 
Q 2797 -91 1919 -91 
Q 1588 -91 1214 -16 
Q 841 59 441 206 
L 441 856 
Q 825 641 1194 531 
Q 1563 422 1919 422 
Q 2459 422 2753 634 
Q 3047 847 3047 1241 
Q 3047 1584 2836 1778 
Q 2625 1972 2144 2069 
L 1759 2144 
Q 1053 2284 737 2584 
Q 422 2884 422 3419 
Q 422 4038 858 4394 
Q 1294 4750 2059 4750 
Q 2388 4750 2728 4690 
Q 3069 4631 3425 4513 
z
" transform="scale(0.015625)"/>
      <path id="DejaVuSans-63" d="M 3122 3366 
L 3122 2828 
Q 2878 2963 2633 3030 
Q 2388 3097 2138 3097 
Q 1578 3097 1268 2742 
Q 959 2388 959 1747 
Q 959 1106 1268 751 
Q 1578 397 2138 397 
Q 2388 397 2633 464 
Q 2878 531 3122 666 
L 3122 134 
Q 2881 22 2623 -34 
Q 2366 -91 2075 -91 
Q 1284 -91 818 406 
Q 353 903 353 1747 
Q 353 2603 823 3093 
Q 1294 3584 2113 3584 
Q 2378 3584 2631 3529 
Q 2884 3475 3122 3366 
z
" transform="scale(0.015625)"/>
      <path id="DejaVuSans-68" d="M 3513 2113 
L 3513 0 
L 2938 0 
L 2938 2094 
Q 2938 2591 2744 2837 
Q 2550 3084 2163 3084 
Q 1697 3084 1428 2787 
Q 1159 2491 1159 1978 
L 1159 0 
L 581 0 
L 581 4863 
L 1159 4863 
L 1159 2956 
Q 1366 3272 1645 3428 
Q 1925 3584 2291 3584 
Q 2894 3584 3203 3211 
Q 3513 2838 3513 2113 
z
" transform="scale(0.015625)"/>
      <path id="DejaVuSans-65" d="M 3597 1894 
L 3597 1613 
L 953 1613 
Q 991 1019 1311 708 
Q 1631 397 2203 397 
Q 2534 397 2845 478 
Q 3156 559 3463 722 
L 3463 178 
Q 3153 47 2828 -22 
Q 2503 -91 2169 -91 
Q 1331 -91 842 396 
Q 353 884 353 1716 
Q 353 2575 817 3079 
Q 1281 3584 2069 3584 
Q 2775 3584 3186 3129 
Q 3597 2675 3597 1894 
z
M 3022 2063 
Q 3016 2534 2758 2815 
Q 2500 3097 2075 3097 
Q 1594 3097 1305 2825 
Q 1016 2553 972 2059 
L 3022 2063 
z
" transform="scale(0.015625)"/>
      <path id="DejaVuSans-64" d="M 2906 2969 
L 2906 4863 
L 3481 4863 
L 3481 0 
L 2906 0 
L 2906 525 
Q 2725 213 2448 61 
Q 2172 -91 1784 -91 
Q 1150 -91 751 415 
Q 353 922 353 1747 
Q 353 2572 751 3078 
Q 1150 3584 1784 3584 
Q 2172 3584 2448 3432 
Q 2725 3281 2906 2969 
z
M 947 1747 
Q 947 1113 1208 752 
Q 1469 391 1925 391 
Q 2381 391 2643 752 
Q 2906 1113 2906 1747 
Q 2906 2381 2643 2742 
Q 2381 3103 1925 3103 
Q 1469 3103 1208 2742 
Q 947 2381 947 1747 
z
" transform="scale(0.015625)"/>
      <path id="DejaVuSans-75" d="M 544 1381 
L 544 3500 
L 1119 3500 
L 1119 1403 
Q 1119 906 1312 657 
Q 1506 409 1894 409 
Q 2359 409 2629 706 
Q 2900 1003 2900 1516 
L 2900 3500 
L 3475 3500 
L 3475 0 
L 2900 0 
L 2900 538 
Q 2691 219 2414 64 
Q 2138 -91 1772 -91 
Q 1169 -91 856 284 
Q 544 659 544 1381 
z
M 1991 3584 
L 1991 3584 
z
" transform="scale(0.015625)"/>
      <path id="DejaVuSans-6c" d="M 603 4863 
L 1178 4863 
L 1178 0 
L 603 0 
L 603 4863 
z
" transform="scale(0.015625)"/>
      <path id="DejaVuSans-20" transform="scale(0.015625)"/>
      <path id="DejaVuSans-72" d="M 2631 2963 
Q 2534 3019 2420 3045 
Q 2306 3072 2169 3072 
Q 1681 3072 1420 2755 
Q 1159 2438 1159 1844 
L 1159 0 
L 581 0 
L 581 3500 
L 1159 3500 
L 1159 2956 
Q 1341 3275 1631 3429 
Q 1922 3584 2338 3584 
Q 2397 3584 2469 3576 
Q 2541 3569 2628 3553 
L 2631 2963 
z
" transform="scale(0.015625)"/>
      <path id="DejaVuSans-6f" d="M 1959 3097 
Q 1497 3097 1228 2736 
Q 959 2375 959 1747 
Q 959 1119 1226 758 
Q 1494 397 1959 397 
Q 2419 397 2687 759 
Q 2956 1122 2956 1747 
Q 2956 2369 2687 2733 
Q 2419 3097 1959 3097 
z
M 1959 3584 
Q 2709 3584 3137 3096 
Q 3566 2609 3566 1747 
Q 3566 888 3137 398 
Q 2709 -91 1959 -91 
Q 1206 -91 779 398 
Q 353 888 353 1747 
Q 353 2609 779 3096 
Q 1206 3584 1959 3584 
z
" transform="scale(0.015625)"/>
      <path id="DejaVuSans-6e" d="M 3513 2113 
L 3513 0 
L 2938 0 
L 2938 2094 
Q 2938 2591 2744 2837 
Q 2550 3084 2163 3084 
Q 1697 3084 1428 2787 
Q 1159 2491 1159 1978 
L 1159 0 
L 581 0 
L 581 3500 
L 1159 3500 
L 1159 2956 
Q 1366 3272 1645 3428 
Q 1925 3584 2291 3584 
Q 2894 3584 3203 3211 
Q 3513 2838 3513 2113 
z
" transform="scale(0.015625)"/>
      <path id="DejaVuSans-6a" d="M 603 3500 
L 1178 3500 
L 1178 -63 
Q 1178 -731 923 -1031 
Q 669 -1331 103 -1331 
L -116 -1331 
L -116 -844 
L 38 -844 
Q 366 -844 484 -692 
Q 603 -541 603 -63 
L 603 3500 
z
M 603 4863 
L 1178 4863 
L 1178 4134 
L 603 4134 
L 603 4863 
z
" transform="scale(0.015625)"/>
      <path id="DejaVuSans-62" d="M 3116 1747 
Q 3116 2381 2855 2742 
Q 2594 3103 2138 3103 
Q 1681 3103 1420 2742 
Q 1159 2381 1159 1747 
Q 1159 1113 1420 752 
Q 1681 391 2138 391 
Q 2594 391 2855 752 
Q 3116 1113 3116 1747 
z
M 1159 2969 
Q 1341 3281 1617 3432 
Q 1894 3584 2278 3584 
Q 2916 3584 3314 3078 
Q 3713 2572 3713 1747 
Q 3713 922 3314 415 
Q 2916 -91 2278 -91 
Q 1894 -91 1617 61 
Q 1341 213 1159 525 
L 1159 0 
L 581 0 
L 581 4863 
L 1159 4863 
L 1159 2969 
z
" transform="scale(0.015625)"/>
     </defs>
     <use xlink:href="#DejaVuSans-53"/>
     <use xlink:href="#DejaVuSans-63" x="63.476562"/>
     <use xlink:href="#DejaVuSans-68" x="118.457031"/>
     <use xlink:href="#DejaVuSans-65" x="181.835938"/>
     <use xlink:href="#DejaVuSans-64" x="243.359375"/>
     <use xlink:href="#DejaVuSans-75" x="306.835938"/>
     <use xlink:href="#DejaVuSans-6c" x="370.214844"/>
     <use xlink:href="#DejaVuSans-65" x="397.998047"/>
     <use xlink:href="#DejaVuSans-20" x="459.521484"/>
     <use xlink:href="#DejaVuSans-63" x="491.308594"/>
     <use xlink:href="#DejaVuSans-72" x="546.289062"/>
     <use xlink:href="#DejaVuSans-6f" x="585.152344"/>
     <use xlink:href="#DejaVuSans-6e" x="646.333984"/>
     <use xlink:href="#DejaVuSans-20" x="709.712891"/>
     <use xlink:href="#DejaVuSans-6a" x="741.5"/>
     <use xlink:href="#DejaVuSans-6f" x="769.283203"/>
     <use xlink:href="#DejaVuSans-62" x="830.464844"/>
    </g>
   </g>
   <g id="text_4">
    <!-- 2 -->
    <g style="fill: #162032" transform="translate(27.126658 93.222943) scale(0.115 -0.115)">
     <defs>
      <path id="DejaVuSans-Bold-32" d="M 1844 884 
L 3897 884 
L 3897 0 
L 506 0 
L 506 884 
L 2209 2388 
Q 2438 2594 2547 2791 
Q 2656 2988 2656 3200 
Q 2656 3528 2436 3728 
Q 2216 3928 1850 3928 
Q 1569 3928 1234 3808 
Q 900 3688 519 3450 
L 519 4475 
Q 925 4609 1322 4679 
Q 1719 4750 2100 4750 
Q 2938 4750 3402 4381 
Q 3866 4013 3866 3353 
Q 3866 2972 3669 2642 
Q 3472 2313 2841 1759 
L 1844 884 
z
" transform="scale(0.015625)"/>
     </defs>
     <use xlink:href="#DejaVuSans-Bold-32"/>
    </g>
   </g>
   <g id="text_5">
    <!-- Run sub-agents -->
    <g style="fill: #f4f6fa" transform="translate(64.8585 92.947006) scale(0.105 -0.105)">
     <defs>
      <path id="DejaVuSans-52" d="M 2841 2188 
Q 3044 2119 3236 1894 
Q 3428 1669 3622 1275 
L 4263 0 
L 3584 0 
L 2988 1197 
Q 2756 1666 2539 1819 
Q 2322 1972 1947 1972 
L 1259 1972 
L 1259 0 
L 628 0 
L 628 4666 
L 2053 4666 
Q 2853 4666 3247 4331 
Q 3641 3997 3641 3322 
Q 3641 2881 3436 2590 
Q 3231 2300 2841 2188 
z
M 1259 4147 
L 1259 2491 
L 2053 2491 
Q 2509 2491 2742 2702 
Q 2975 2913 2975 3322 
Q 2975 3731 2742 3939 
Q 2509 4147 2053 4147 
L 1259 4147 
z
" transform="scale(0.015625)"/>
      <path id="DejaVuSans-73" d="M 2834 3397 
L 2834 2853 
Q 2591 2978 2328 3040 
Q 2066 3103 1784 3103 
Q 1356 3103 1142 2972 
Q 928 2841 928 2578 
Q 928 2378 1081 2264 
Q 1234 2150 1697 2047 
L 1894 2003 
Q 2506 1872 2764 1633 
Q 3022 1394 3022 966 
Q 3022 478 2636 193 
Q 2250 -91 1575 -91 
Q 1294 -91 989 -36 
Q 684 19 347 128 
L 347 722 
Q 666 556 975 473 
Q 1284 391 1588 391 
Q 1994 391 2212 530 
Q 2431 669 2431 922 
Q 2431 1156 2273 1281 
Q 2116 1406 1581 1522 
L 1381 1569 
Q 847 1681 609 1914 
Q 372 2147 372 2553 
Q 372 3047 722 3315 
Q 1072 3584 1716 3584 
Q 2034 3584 2315 3537 
Q 2597 3491 2834 3397 
z
" transform="scale(0.015625)"/>
      <path id="DejaVuSans-2d" d="M 313 2009 
L 1997 2009 
L 1997 1497 
L 313 1497 
L 313 2009 
z
" transform="scale(0.015625)"/>
      <path id="DejaVuSans-61" d="M 2194 1759 
Q 1497 1759 1228 1600 
Q 959 1441 959 1056 
Q 959 750 1161 570 
Q 1363 391 1709 391 
Q 2188 391 2477 730 
Q 2766 1069 2766 1631 
L 2766 1759 
L 2194 1759 
z
M 3341 1997 
L 3341 0 
L 2766 0 
L 2766 531 
Q 2569 213 2275 61 
Q 1981 -91 1556 -91 
Q 1019 -91 701 211 
Q 384 513 384 1019 
Q 384 1609 779 1909 
Q 1175 2209 1959 2209 
L 2766 2209 
L 2766 2266 
Q 2766 2663 2505 2880 
Q 2244 3097 1772 3097 
Q 1472 3097 1187 3025 
Q 903 2953 641 2809 
L 641 3341 
Q 956 3463 1253 3523 
Q 1550 3584 1831 3584 
Q 2591 3584 2966 3190 
Q 3341 2797 3341 1997 
z
" transform="scale(0.015625)"/>
      <path id="DejaVuSans-67" d="M 2906 1791 
Q 2906 2416 2648 2759 
Q 2391 3103 1925 3103 
Q 1463 3103 1205 2759 
Q 947 2416 947 1791 
Q 947 1169 1205 825 
Q 1463 481 1925 481 
Q 2391 481 2648 825 
Q 2906 1169 2906 1791 
z
M 3481 434 
Q 3481 -459 3084 -895 
Q 2688 -1331 1869 -1331 
Q 1566 -1331 1297 -1286 
Q 1028 -1241 775 -1147 
L 775 -588 
Q 1028 -725 1275 -790 
Q 1522 -856 1778 -856 
Q 2344 -856 2625 -561 
Q 2906 -266 2906 331 
L 2906 616 
Q 2728 306 2450 153 
Q 2172 0 1784 0 
Q 1141 0 747 490 
Q 353 981 353 1791 
Q 353 2603 747 3093 
Q 1141 3584 1784 3584 
Q 2172 3584 2450 3431 
Q 2728 3278 2906 2969 
L 2906 3500 
L 3481 3500 
L 3481 434 
z
" transform="scale(0.015625)"/>
      <path id="DejaVuSans-74" d="M 1172 4494 
L 1172 3500 
L 2356 3500 
L 2356 3053 
L 1172 3053 
L 1172 1153 
Q 1172 725 1289 603 
Q 1406 481 1766 481 
L 2356 481 
L 2356 0 
L 1766 0 
Q 1100 0 847 248 
Q 594 497 594 1153 
L 594 3053 
L 172 3053 
L 172 3500 
L 594 3500 
L 594 4494 
L 1172 4494 
z
" transform="scale(0.015625)"/>
     </defs>
     <use xlink:href="#DejaVuSans-52"/>
     <use xlink:href="#DejaVuSans-75" x="64.982422"/>
     <use xlink:href="#DejaVuSans-6e" x="128.361328"/>
     <use xlink:href="#DejaVuSans-20" x="191.740234"/>
     <use xlink:href="#DejaVuSans-73" x="223.527344"/>
     <use xlink:href="#DejaVuSans-75" x="275.626953"/>
     <use xlink:href="#DejaVuSans-62" x="339.005859"/>
     <use xlink:href="#DejaVuSans-2d" x="402.482422"/>
     <use xlink:href="#DejaVuSans-61" x="438.566406"/>
     <use xlink:href="#DejaVuSans-67" x="499.845703"/>
     <use xlink:href="#DejaVuSans-65" x="563.322266"/>
     <use xlink:href="#DejaVuSans-6e" x="624.845703"/>
     <use xlink:href="#DejaVuSans-74" x="688.224609"/>
     <use xlink:href="#DejaVuSans-73" x="727.433594"/>
    </g>
   </g>
   <g id="text_6">
    <!-- 3 -->
    <g style="fill: #162032" transform="translate(27.126658 133.412523) scale(0.115 -0.115)">
     <defs>
      <path id="DejaVuSans-Bold-33" d="M 2981 2516 
Q 3453 2394 3698 2092 
Q 3944 1791 3944 1325 
Q 3944 631 3412 270 
Q 2881 -91 1863 -91 
Q 1503 -91 1142 -33 
Q 781 25 428 141 
L 428 1069 
Q 766 900 1098 814 
Q 1431 728 1753 728 
Q 2231 728 2486 893 
Q 2741 1059 2741 1369 
Q 2741 1688 2480 1852 
Q 2219 2016 1709 2016 
L 1228 2016 
L 1228 2791 
L 1734 2791 
Q 2188 2791 2409 2933 
Q 2631 3075 2631 3366 
Q 2631 3634 2415 3781 
Q 2200 3928 1806 3928 
Q 1516 3928 1219 3862 
Q 922 3797 628 3669 
L 628 4550 
Q 984 4650 1334 4700 
Q 1684 4750 2022 4750 
Q 2931 4750 3382 4451 
Q 3834 4153 3834 3553 
Q 3834 3144 3618 2883 
Q 3403 2622 2981 2516 
z
" transform="scale(0.015625)"/>
     </defs>
     <use xlink:href="#DejaVuSans-Bold-33"/>
    </g>
   </g>
   <g id="text_7">
    <!-- Synthesize AI brief -->
    <g style="fill: #f4f6fa" transform="translate(64.8585 133.136586) scale(0.105 -0.105)">
     <defs>
      <path id="DejaVuSans-79" d="M 2059 -325 
Q 1816 -950 1584 -1140 
Q 1353 -1331 966 -1331 
L 506 -1331 
L 506 -850 
L 844 -850 
Q 1081 -850 1212 -737 
Q 1344 -625 1503 -206 
L 1606 56 
L 191 3500 
L 800 3500 
L 1894 763 
L 2988 3500 
L 3597 3500 
L 2059 -325 
z
" transform="scale(0.015625)"/>
      <path id="DejaVuSans-69" d="M 603 3500 
L 1178 3500 
L 1178 0 
L 603 0 
L 603 3500 
z
M 603 4863 
L 1178 4863 
L 1178 4134 
L 603 4134 
L 603 4863 
z
" transform="scale(0.015625)"/>
      <path id="DejaVuSans-7a" d="M 353 3500 
L 3084 3500 
L 3084 2975 
L 922 459 
L 3084 459 
L 3084 0 
L 275 0 
L 275 525 
L 2438 3041 
L 353 3041 
L 353 3500 
z
" transform="scale(0.015625)"/>
      <path id="DejaVuSans-41" d="M 2188 4044 
L 1331 1722 
L 3047 1722 
L 2188 4044 
z
M 1831 4666 
L 2547 4666 
L 4325 0 
L 3669 0 
L 3244 1197 
L 1141 1197 
L 716 0 
L 50 0 
L 1831 4666 
z
" transform="scale(0.015625)"/>
      <path id="DejaVuSans-49" d="M 628 4666 
L 1259 4666 
L 1259 0 
L 628 0 
L 628 4666 
z
" transform="scale(0.015625)"/>
      <path id="DejaVuSans-66" d="M 2375 4863 
L 2375 4384 
L 1825 4384 
Q 1516 4384 1395 4259 
Q 1275 4134 1275 3809 
L 1275 3500 
L 2222 3500 
L 2222 3053 
L 1275 3053 
L 1275 0 
L 697 0 
L 697 3053 
L 147 3053 
L 147 3500 
L 697 3500 
L 697 3744 
Q 697 4328 969 4595 
Q 1241 4863 1831 4863 
L 2375 4863 
z
" transform="scale(0.015625)"/>
     </defs>
     <use xlink:href="#DejaVuSans-53"/>
     <use xlink:href="#DejaVuSans-79" x="63.476562"/>
     <use xlink:href="#DejaVuSans-6e" x="122.65625"/>
     <use xlink:href="#DejaVuSans-74" x="186.035156"/>
     <use xlink:href="#DejaVuSans-68" x="225.244141"/>
     <use xlink:href="#DejaVuSans-65" x="288.623047"/>
     <use xlink:href="#DejaVuSans-73" x="350.146484"/>
     <use xlink:href="#DejaVuSans-69" x="402.246094"/>
     <use xlink:href="#DejaVuSans-7a" x="430.029297"/>
     <use xlink:href="#DejaVuSans-65" x="482.519531"/>
     <use xlink:href="#DejaVuSans-20" x="544.042969"/>
     <use xlink:href="#DejaVuSans-41" x="575.830078"/>
     <use xlink:href="#DejaVuSans-49" x="644.238281"/>
     <use xlink:href="#DejaVuSans-20" x="673.730469"/>
     <use xlink:href="#DejaVuSans-62" x="705.517578"/>
     <use xlink:href="#DejaVuSans-72" x="768.994141"/>
     <use xlink:href="#DejaVuSans-69" x="810.107422"/>
     <use xlink:href="#DejaVuSans-65" x="837.890625"/>
     <use xlink:href="#DejaVuSans-66" x="899.414062"/>
    </g>
   </g>
   <g id="text_8">
    <!-- 4 -->
    <g style="fill: #162032" transform="translate(27.126658 173.602103) scale(0.115 -0.115)">
     <defs>
      <path id="DejaVuSans-Bold-34" d="M 2356 3675 
L 1038 1722 
L 2356 1722 
L 2356 3675 
z
M 2156 4666 
L 3494 4666 
L 3494 1722 
L 4159 1722 
L 4159 850 
L 3494 850 
L 3494 0 
L 2356 0 
L 2356 850 
L 288 850 
L 288 1881 
L 2156 4666 
z
" transform="scale(0.015625)"/>
     </defs>
     <use xlink:href="#DejaVuSans-Bold-34"/>
    </g>
   </g>
   <g id="text_9">
    <!-- Review and publish -->
    <g style="fill: #f4f6fa" transform="translate(64.8585 173.326166) scale(0.105 -0.105)">
     <defs>
      <path id="DejaVuSans-76" d="M 191 3500 
L 800 3500 
L 1894 563 
L 2988 3500 
L 3597 3500 
L 2284 0 
L 1503 0 
L 191 3500 
z
" transform="scale(0.015625)"/>
      <path id="DejaVuSans-77" d="M 269 3500 
L 844 3500 
L 1563 769 
L 2278 3500 
L 2956 3500 
L 3675 769 
L 4391 3500 
L 4966 3500 
L 4050 0 
L 3372 0 
L 2619 2869 
L 1863 0 
L 1184 0 
L 269 3500 
z
" transform="scale(0.015625)"/>
      <path id="DejaVuSans-70" d="M 1159 525 
L 1159 -1331 
L 581 -1331 
L 581 3500 
L 1159 3500 
L 1159 2969 
Q 1341 3281 1617 3432 
Q 1894 3584 2278 3584 
Q 2916 3584 3314 3078 
Q 3713 2572 3713 1747 
Q 3713 922 3314 415 
Q 2916 -91 2278 -91 
Q 1894 -91 1617 61 
Q 1341 213 1159 525 
z
M 3116 1747 
Q 3116 2381 2855 2742 
Q 2594 3103 2138 3103 
Q 1681 3103 1420 2742 
Q 1159 2381 1159 1747 
Q 1159 1113 1420 752 
Q 1681 391 2138 391 
Q 2594 391 2855 752 
Q 3116 1113 3116 1747 
z
" transform="scale(0.015625)"/>
     </defs>
     <use xlink:href="#DejaVuSans-52"/>
     <use xlink:href="#DejaVuSans-65" x="64.982422"/>
     <use xlink:href="#DejaVuSans-76" x="126.505859"/>
     <use xlink:href="#DejaVuSans-69" x="185.685547"/>
     <use xlink:href="#DejaVuSans-65" x="213.46875"/>
     <use xlink:href="#DejaVuSans-77" x="274.992188"/>
     <use xlink:href="#DejaVuSans-20" x="356.779297"/>
     <use xlink:href="#DejaVuSans-61" x="388.566406"/>
     <use xlink:href="#DejaVuSans-6e" x="449.845703"/>
     <use xlink:href="#DejaVuSans-64" x="513.224609"/>
     <use xlink:href="#DejaVuSans-20" x="576.701172"/>
     <use xlink:href="#DejaVuSans-70" x="608.488281"/>
     <use xlink:href="#DejaVuSans-75" x="671.964844"/>
     <use xlink:href="#DejaVuSans-62" x="735.34375"/>
     <use xlink:href="#DejaVuSans-6c" x="798.820312"/>
     <use xlink:href="#DejaVuSans-69" x="826.603516"/>
     <use xlink:href="#DejaVuSans-73" x="854.386719"/>
     <use xlink:href="#DejaVuSans-68" x="906.486328"/>
    </g>
   </g>
  </g>
 </g>
 <defs>
  <clipPath id="p8aa947c07c">
   <rect x="8.64" y="8.64" width="362.7" height="226.1952"/>
  </clipPath>
 </defs>
</svg>
