<?xml version="1.0" encoding="utf-8" standalone="no"?>
<!DOCTYPE svg PUBLIC "-//W3C//DTD SVG 1.1//EN"
  "http://www.w3.org/Graphics/SVG/1.1/DTD/svg11.dtd">
<svg xmlns:xlink="http://www.w3.org/1999/xlink" width="438.688594pt" height="263.187637pt" viewBox="0 0 438.688594 263.187637" xmlns="http://www.w3.org/2000/svg" version="1.1">
 <metadata>
  <rdf:RDF xmlns:dc="http://purl.org/dc/elements/1.1/" xmlns:cc="http://creativecommons.org/ns#" xmlns:rdf="http://www.w3.org/1999/02/22-rdf-syntax-ns#">
   <cc:Work>
    <dc:type rdf:resource="http://purl.org/dc/dcmitype/StillImage"/>
    <dc:date>2026-06-10T22:59:22.890894</dc:date>
    <dc:format>image/svg+xml</dc:format>
    <dc:creator>
     <cc:Agent>
      <dc:title>Matplotlib v3.8.4, https://matplotlib.org/</dc:title>
     </cc:Agent>
    </dc:creator>
   </cc:Work>
  </rdf:RDF>
 </metadata>
 <defs>
  <style type="text/css">*{stroke-linejoin: round; stroke-linecap: butt}</style>
 </defs>
 <g id="figure_1">
  <g id="patch_1">
   <path d="M 0 263.187637 
L 438.688594 263.187637 
L 438.688594 0 
L 0 0 
L 0 263.187637 
z
" style="fill: none"/>
  </g>
  <g id="axes_1">
   <g id="patch_2">
    <path d="M 23.148 229.120615 
L 128.331 229.120615 
Q 132.6834 229.120615 132.6834 222.865846 
L 132.6834 45.126154 
Q 132.6834 38.871385 128.331 38.871385 
L 23.148 38.871385 
Q 18.7956 38.871385 18.7956 45.126154 
L 18.7956 222.865846 
Q 18.7956 229.120615 23.148 229.120615 
z
" clip-path="url(#pb04c4cee9d)" style="fill: #1f2e45; opacity: 0.92; stroke: #29b6d9; stroke-width: 1.2; stroke-linejoin: miter"/>
   </g>
   <g id="line2d_1">
    <path d="M 31.1274 208.792615 
L 89.1594 208.792615 
" clip-path="url(#pb04c4cee9d)" style="fill: none; stroke: #f4f6fa; stroke-opacity: 0.16; stroke-width: 2.6; stroke-linecap: round"/>
   </g>
   <g id="line2d_2">
    <path d="M 31.1274 193.833292 
L 119.9889 193.833292 
" clip-path="url(#pb04c4cee9d)" style="fill: none; stroke: #f4f6fa; stroke-opacity: 0.16; stroke-width: 2.6; stroke-linecap: round"/>
   </g>
   <g id="line2d_3">
    <path d="M 31.1274 178.873969 
L 119.9889 178.873969 
" clip-path="url(#pb04c4cee9d)" style="fill: none; stroke: #f4f6fa; stroke-opacity: 0.16; stroke-width: 2.6; stroke-linecap: round"/>
   </g>
   <g id="line2d_4">
    <path d="M 31.1274 163.914646 
L 89.1594 163.914646 
" clip-path="url(#pb04c4cee9d)" style="fill: none; stroke: #f4f6fa; stroke-opacity: 0.16; stroke-width: 2.6; stroke-linecap: round"/>
   </g>
   <g id="line2d_5">
    <path d="M 31.1274 148.955323 
L 119.9889 148.955323 
" clip-path="url(#pb04c4cee9d)" style="fill: none; stroke: #f4f6fa; stroke-opacity: 0.16; stroke-width: 2.6; stroke-linecap: round"/>
   </g>
   <g id="line2d_6">
    <path d="M 31.1274 133.996 
L 119.9889 133.996 
" clip-path="url(#pb04c4cee9d)" style="fill: none; stroke: #f4f6fa; stroke-opacity: 0.16; stroke-width: 2.6; stroke-linecap: round"/>
   </g>
   <g id="line2d_7">
    <path d="M 31.1274 119.036677 
L 89.1594 119.036677 
" clip-path="url(#pb04c4cee9d)" style="fill: none; stroke: #f4f6fa; stroke-opacity: 0.16; stroke-width: 2.6; stroke-linecap: round"/>
   </g>
   <g id="line2d_8">
    <path d="M 31.1274 104.077354 
L 119.9889 104.077354 
" clip-path="url(#pb04c4cee9d)" style="fill: none; stroke: #f4f6fa; stroke-opacity: 0.16; stroke-width: 2.6; stroke-linecap: round"/>
   </g>
   <g id="line2d_9">
    <path d="M 31.1274 89.118031 
L 119.9889 89.118031 
" clip-path="url(#pb04c4cee9d)" style="fill: none; stroke: #f4f6fa; stroke-opacity: 0.16; stroke-width: 2.6; stroke-linecap: round"/>
   </g>
   <g id="line2d_10">
    <path d="M 31.1274 74.158708 
L 89.1594 74.158708 
" clip-path="url(#pb04c4cee9d)" style="fill: none; stroke: #f4f6fa; stroke-opacity: 0.16; stroke-width: 2.6; stroke-linecap: round"/>
   </g>
   <g id="line2d_11">
    <path d="M 31.1274 59.199385 
L 119.9889 59.199385 
" clip-path="url(#pb04c4cee9d)" style="fill: none; stroke: #f4f6fa; stroke-opacity: 0.16; stroke-width: 2.6; stroke-linecap: round"/>
   </g>
   <g id="line2d_12">
    <path d="M 93.5118 65.975385 
L 144.6525 65.975385 
" clip-path="url(#pb04c4cee9d)" style="fill: none; stroke-dasharray: 3,2; stroke-dashoffset: 0; stroke: #29b6d9; stroke-opacity: 0.55"/>
   </g>
   <g id="line2d_13">
    <path d="M 93.5118 104.546462 
L 144.6525 104.546462 
" clip-path="url(#pb04c4cee9d)" style="fill: none; stroke-dasharray: 3,2; stroke-dashoffset: 0; stroke: #29b6d9; stroke-opacity: 0.55"/>
   </g>
   <g id="line2d_14">
    <path d="M 93.5118 143.117538 
L 144.6525 143.117538 
" clip-path="url(#pb04c4cee9d)" style="fill: none; stroke-dasharray: 3,2; stroke-dashoffset: 0; stroke: #29b6d9; stroke-opacity: 0.55"/>
   </g>
   <g id="line2d_15">
    <path d="M 93.5118 181.688615 
L 144.6525 181.688615 
" clip-path="url(#pb04c4cee9d)" style="fill: none; stroke-dasharray: 3,2; stroke-dashoffset: 0; stroke: #29b6d9; stroke-opacity: 0.55"/>
   </g>
   <g id="text_1">
    <!-- The 7.4-second scan: where a recruiter looks first -->
    <g style="fill: #f4f6fa" transform="translate(8.64 27.933392) scale(0.15 -0.15)">
     <defs>
      <path id="DejaVuSans-Bold-54" d="M 31 4666 
L 4331 4666 
L 4331 3756 
L 2784 3756 
L 2784 0 
L 1581 0 
L 1581 3756 
L 31 3756 
L 31 4666 
z
" transform="scale(0.015625)"/>
      <path id="DejaVuSans-Bold-68" d="M 4056 2131 
L 4056 0 
L 2931 0 
L 2931 347 
L 2931 1625 
Q 2931 2084 2911 2256 
Q 2891 2428 2841 2509 
Q 2775 2619 2662 2680 
Q 2550 2741 2406 2741 
Q 2056 2741 1856 2470 
Q 1656 2200 1656 1722 
L 1656 0 
L 538 0 
L 538 4863 
L 1656 4863 
L 1656 2988 
Q 1909 3294 2193 3439 
Q 2478 3584 2822 3584 
Q 3428 3584 3742 3212 
Q 4056 2841 4056 2131 
z
" transform="scale(0.015625)"/>
      <path id="DejaVuSans-Bold-65" d="M 4031 1759 
L 4031 1441 
L 1416 1441 
Q 1456 1047 1700 850 
Q 1944 653 2381 653 
Q 2734 653 3104 758 
Q 3475 863 3866 1075 
L 3866 213 
Q 3469 63 3072 -14 
Q 2675 -91 2278 -91 
Q 1328 -91 801 392 
Q 275 875 275 1747 
Q 275 2603 792 3093 
Q 1309 3584 2216 3584 
Q 3041 3584 3536 3087 
Q 4031 2591 4031 1759 
z
M 2881 2131 
Q 2881 2450 2695 2645 
Q 2509 2841 2209 2841 
Q 1884 2841 1681 2658 
Q 1478 2475 1428 2131 
L 2881 2131 
z
" transform="scale(0.015625)"/>
      <path id="DejaVuSans-Bold-20" transform="scale(0.015625)"/>
      <path id="DejaVuSans-Bold-37" d="M 428 4666 
L 3944 4666 
L 3944 3988 
L 2125 0 
L 953 0 
L 2675 3781 
L 428 3781 
L 428 4666 
z
" transform="scale(0.015625)"/>
      <path id="DejaVuSans-Bold-2e" d="M 653 1209 
L 1778 1209 
L 1778 0 
L 653 0 
L 653 1209 
z
" transform="scale(0.015625)"/>
      <path id="DejaVuSans-Bold-34" d="M 2356 3675 
L 1038 1722 
L 2356 1722 
L 2356 3675 
z
M 2156 4666 
L 3494 4666 
L 3494 1722 
L 4159 1722 
L 4159 850 
L 3494 850 
L 3494 0 
L 2356 0 
L 2356 850 
L 288 850 
L 288 1881 
L 2156 4666 
z
" transform="scale(0.015625)"/>
      <path id="DejaVuSans-Bold-2d" d="M 347 2297 
L 2309 2297 
L 2309 1388 
L 347 1388 
L 347 2297 
z
" transform="scale(0.015625)"/>
      <path id="DejaVuSans-Bold-73" d="M 3272 3391 
L 3272 2541 
Q 2913 2691 2578 2766 
Q 2244 2841 1947 2841 
Q 1628 2841 1473 2761 
Q 1319 2681 1319 2516 
Q 1319 2381 1436 2309 
Q 1553 2238 1856 2203 
L 2053 2175 
Q 2913 2066 3209 1816 
Q 3506 1566 3506 1031 
Q 3506 472 3093 190 
Q 2681 -91 1863 -91 
Q 1516 -91 1145 -36 
Q 775 19 384 128 
L 384 978 
Q 719 816 1070 734 
Q 1422 653 1784 653 
Q 2113 653 2278 743 
Q 2444 834 2444 1013 
Q 2444 1163 2330 1236 
Q 2216 1309 1875 1350 
L 1678 1375 
Q 931 1469 631 1722 
Q 331 1975 331 2491 
Q 331 3047 712 3315 
Q 1094 3584 1881 3584 
Q 2191 3584 2531 3537 
Q 2872 3491 3272 3391 
z
" transform="scale(0.015625)"/>
      <path id="DejaVuSans-Bold-63" d="M 3366 3391 
L 3366 2478 
Q 3138 2634 2908 2709 
Q 2678 2784 2431 2784 
Q 1963 2784 1702 2511 
Q 1441 2238 1441 1747 
Q 1441 1256 1702 982 
Q 1963 709 2431 709 
Q 2694 709 2930 787 
Q 3166 866 3366 1019 
L 3366 103 
Q 3103 6 2833 -42 
Q 2563 -91 2291 -91 
Q 1344 -91 809 395 
Q 275 881 275 1747 
Q 275 2613 809 3098 
Q 1344 3584 2291 3584 
Q 2566 3584 2833 3536 
Q 3100 3488 3366 3391 
z
" transform="scale(0.015625)"/>
      <path id="DejaVuSans-Bold-6f" d="M 2203 2784 
Q 1831 2784 1636 2517 
Q 1441 2250 1441 1747 
Q 1441 1244 1636 976 
Q 1831 709 2203 709 
Q 2569 709 2762 976 
Q 2956 1244 2956 1747 
Q 2956 2250 2762 2517 
Q 2569 2784 2203 2784 
z
M 2203 3584 
Q 3106 3584 3614 3096 
Q 4122 2609 4122 1747 
Q 4122 884 3614 396 
Q 3106 -91 2203 -91 
Q 1297 -91 786 396 
Q 275 884 275 1747 
Q 275 2609 786 3096 
Q 1297 3584 2203 3584 
z
" transform="scale(0.015625)"/>
      <path id="DejaVuSans-Bold-6e" d="M 4056 2131 
L 4056 0 
L 2931 0 
L 2931 347 
L 2931 1631 
Q 2931 2084 2911 2256 
Q 2891 2428 2841 2509 
Q 2775 2619 2662 2680 
Q 2550 2741 2406 2741 
Q 2056 2741 1856 2470 
Q 1656 2200 1656 1722 
L 1656 0 
L 538 0 
L 538 3500 
L 1656 3500 
L 1656 2988 
Q 1909 3294 2193 3439 
Q 2478 3584 2822 3584 
Q 3428 3584 3742 3212 
Q 4056 2841 4056 2131 
z
" transform="scale(0.015625)"/>
      <path id="DejaVuSans-Bold-64" d="M 2919 2988 
L 2919 4863 
L 4044 4863 
L 4044 0 
L 2919 0 
L 2919 506 
Q 2688 197 2409 53 
Q 2131 -91 1766 -91 
Q 1119 -91 703 423 
Q 288 938 288 1747 
Q 288 2556 703 3070 
Q 1119 3584 1766 3584 
Q 2128 3584 2408 3439 
Q 2688 3294 2919 2988 
z
M 2181 722 
Q 2541 722 2730 984 
Q 2919 1247 2919 1747 
Q 2919 2247 2730 2509 
Q 2541 2772 2181 2772 
Q 1825 2772 1636 2509 
Q 1447 2247 1447 1747 
Q 1447 1247 1636 984 
Q 1825 722 2181 722 
z
" transform="scale(0.015625)"/>
      <path id="DejaVuSans-Bold-61" d="M 2106 1575 
Q 1756 1575 1579 1456 
Q 1403 1338 1403 1106 
Q 1403 894 1545 773 
Q 1688 653 1941 653 
Q 2256 653 2472 879 
Q 2688 1106 2688 1447 
L 2688 1575 
L 2106 1575 
z
M 3816 1997 
L 3816 0 
L 2688 0 
L 2688 519 
Q 2463 200 2181 54 
Q 1900 -91 1497 -91 
Q 953 -91 614 226 
Q 275 544 275 1050 
Q 275 1666 698 1953 
Q 1122 2241 2028 2241 
L 2688 2241 
L 2688 2328 
Q 2688 2594 2478 2717 
Q 2269 2841 1825 2841 
Q 1466 2841 1156 2769 
Q 847 2697 581 2553 
L 581 3406 
Q 941 3494 1303 3539 
Q 1666 3584 2028 3584 
Q 2975 3584 3395 3211 
Q 3816 2838 3816 1997 
z
" transform="scale(0.015625)"/>
      <path id="DejaVuSans-Bold-3a" d="M 716 3500 
L 1844 3500 
L 1844 2291 
L 716 2291 
L 716 3500 
z
M 716 1209 
L 1844 1209 
L 1844 0 
L 716 0 
L 716 1209 
z
" transform="scale(0.015625)"/>
      <path id="DejaVuSans-Bold-77" d="M 225 3500 
L 1313 3500 
L 1900 1088 
L 2491 3500 
L 3425 3500 
L 4013 1113 
L 4603 3500 
L 5691 3500 
L 4769 0 
L 3547 0 
L 2956 2406 
L 2369 0 
L 1147 0 
L 225 3500 
z
" transform="scale(0.015625)"/>
      <path id="DejaVuSans-Bold-72" d="M 3138 2547 
Q 2991 2616 2845 2648 
Q 2700 2681 2553 2681 
Q 2122 2681 1889 2404 
Q 1656 2128 1656 1613 
L 1656 0 
L 538 0 
L 538 3500 
L 1656 3500 
L 1656 2925 
Q 1872 3269 2151 3426 
Q 2431 3584 2822 3584 
Q 2878 3584 2943 3579 
Q 3009 3575 3134 3559 
L 3138 2547 
z
" transform="scale(0.015625)"/>
      <path id="DejaVuSans-Bold-75" d="M 500 1363 
L 500 3500 
L 1625 3500 
L 1625 3150 
Q 1625 2866 1622 2436 
Q 1619 2006 1619 1863 
Q 1619 1441 1641 1255 
Q 1663 1069 1716 984 
Q 1784 875 1895 815 
Q 2006 756 2150 756 
Q 2500 756 2700 1025 
Q 2900 1294 2900 1772 
L 2900 3500 
L 4019 3500 
L 4019 0 
L 2900 0 
L 2900 506 
Q 2647 200 2364 54 
Q 2081 -91 1741 -91 
Q 1134 -91 817 281 
Q 500 653 500 1363 
z
" transform="scale(0.015625)"/>
      <path id="DejaVuSans-Bold-69" d="M 538 3500 
L 1656 3500 
L 1656 0 
L 538 0 
L 538 3500 
z
M 538 4863 
L 1656 4863 
L 1656 3950 
L 538 3950 
L 538 4863 
z
" transform="scale(0.015625)"/>
      <path id="DejaVuSans-Bold-74" d="M 1759 4494 
L 1759 3500 
L 2913 3500 
L 2913 2700 
L 1759 2700 
L 1759 1216 
Q 1759 972 1856 886 
Q 1953 800 2241 800 
L 2816 800 
L 2816 0 
L 1856 0 
Q 1194 0 917 276 
Q 641 553 641 1216 
L 641 2700 
L 84 2700 
L 84 3500 
L 641 3500 
L 641 4494 
L 1759 4494 
z
" transform="scale(0.015625)"/>
      <path id="DejaVuSans-Bold-6c" d="M 538 4863 
L 1656 4863 
L 1656 0 
L 538 0 
L 538 4863 
z
" transform="scale(0.015625)"/>
      <path id="DejaVuSans-Bold-6b" d="M 538 4863 
L 1656 4863 
L 1656 2216 
L 2944 3500 
L 4244 3500 
L 2534 1894 
L 4378 0 
L 3022 0 
L 1656 1459 
L 1656 0 
L 538 0 
L 538 4863 
z
" transform="scale(0.015625)"/>
      <path id="DejaVuSans-Bold-66" d="M 2841 4863 
L 2841 4128 
L 2222 4128 
Q 1984 4128 1890 4042 
Q 1797 3956 1797 3744 
L 1797 3500 
L 2753 3500 
L 2753 2700 
L 1797 2700 
L 1797 0 
L 678 0 
L 678 2700 
L 122 2700 
L 122 3500 
L 678 3500 
L 678 3744 
Q 678 4316 997 4589 
Q 1316 4863 1984 4863 
L 2841 4863 
z
" transform="scale(0.015625)"/>
     </defs>
     <use xlink:href="#DejaVuSans-Bold-54"/>
     <use xlink:href="#DejaVuSans-Bold-68" x="68.212891"/>
     <use xlink:href="#DejaVuSans-Bold-65" x="139.404297"/>
     <use xlink:href="#DejaVuSans-Bold-20" x="207.226562"/>
     <use xlink:href="#DejaVuSans-Bold-37" x="242.041016"/>
     <use xlink:href="#DejaVuSans-Bold-2e" x="311.621094"/>
     <use xlink:href="#DejaVuSans-Bold-34" x="349.609375"/>
     <use xlink:href="#DejaVuSans-Bold-2d" x="419.189453"/>
     <use xlink:href="#DejaVuSans-Bold-73" x="460.693359"/>
     <use xlink:href="#DejaVuSans-Bold-65" x="520.214844"/>
     <use xlink:href="#DejaVuSans-Bold-63" x="588.037109"/>
     <use xlink:href="#DejaVuSans-Bold-6f" x="647.314453"/>
     <use xlink:href="#DejaVuSans-Bold-6e" x="716.015625"/>
     <use xlink:href="#DejaVuSans-Bold-64" x="787.207031"/>
     <use xlink:href="#DejaVuSans-Bold-20" x="858.789062"/>
     <use xlink:href="#DejaVuSans-Bold-73" x="893.603516"/>
     <use xlink:href="#DejaVuSans-Bold-63" x="953.125"/>
     <use xlink:href="#DejaVuSans-Bold-61" x="1012.402344"/>
     <use xlink:href="#DejaVuSans-Bold-6e" x="1079.882812"/>
     <use xlink:href="#DejaVuSans-Bold-3a" x="1151.074219"/>
     <use xlink:href="#DejaVuSans-Bold-20" x="1191.064453"/>
     <use xlink:href="#DejaVuSans-Bold-77" x="1225.878906"/>
     <use xlink:href="#DejaVuSans-Bold-68" x="1318.261719"/>
     <use xlink:href="#DejaVuSans-Bold-65" x="1389.453125"/>
     <use xlink:href="#DejaVuSans-Bold-72" x="1457.275391"/>
     <use xlink:href="#DejaVuSans-Bold-65" x="1506.591797"/>
     <use xlink:href="#DejaVuSans-Bold-20" x="1574.414062"/>
     <use xlink:href="#DejaVuSans-Bold-61" x="1609.228516"/>
     <use xlink:href="#DejaVuSans-Bold-20" x="1676.708984"/>
     <use xlink:href="#DejaVuSans-Bold-72" x="1711.523438"/>
     <use xlink:href="#DejaVuSans-Bold-65" x="1760.839844"/>
     <use xlink:href="#DejaVuSans-Bold-63" x="1828.662109"/>
     <use xlink:href="#DejaVuSans-Bold-72" x="1887.939453"/>
     <use xlink:href="#DejaVuSans-Bold-75" x="1937.255859"/>
     <use xlink:href="#DejaVuSans-Bold-69" x="2008.447266"/>
     <use xlink:href="#DejaVuSans-Bold-74" x="2042.724609"/>
     <use xlink:href="#DejaVuSans-Bold-65" x="2090.527344"/>
     <use xlink:href="#DejaVuSans-Bold-72" x="2158.349609"/>
     <use xlink:href="#DejaVuSans-Bold-20" x="2207.666016"/>
     <use xlink:href="#DejaVuSans-Bold-6c" x="2242.480469"/>
     <use xlink:href="#DejaVuSans-Bold-6f" x="2276.757812"/>
     <use xlink:href="#DejaVuSans-Bold-6f" x="2345.458984"/>
     <use xlink:href="#DejaVuSans-Bold-6b" x="2414.160156"/>
     <use xlink:href="#DejaVuSans-Bold-73" x="2480.664062"/>
     <use xlink:href="#DejaVuSans-Bold-20" x="2540.185547"/>
     <use xlink:href="#DejaVuSans-Bold-66" x="2575"/>
     <use xlink:href="#DejaVuSans-Bold-69" x="2618.505859"/>
     <use xlink:href="#DejaVuSans-Bold-72" x="2652.783203"/>
     <use xlink:href="#DejaVuSans-Bold-73" x="2702.099609"/>
     <use xlink:href="#DejaVuSans-Bold-74" x="2761.621094"/>
    </g>
   </g>
   <g id="text_2">
    <!-- Source: Ladders, Inc. Eye-Tracking Study (2018) -->
    <g style="fill: #f4f6fa; opacity: 0.55" transform="translate(8.64 252.779903) scale(0.085 -0.085)">
     <defs>
      <path id="DejaVuSans-53" d="M 3425 4513 
L 3425 3897 
Q 3066 4069 2747 4153 
Q 2428 4238 2131 4238 
Q 1616 4238 1336 4038 
Q 1056 3838 1056 3469 
Q 1056 3159 1242 3001 
Q 1428 2844 1947 2747 
L 2328 2669 
Q 3034 2534 3370 2195 
Q 3706 1856 3706 1288 
Q 3706 609 3251 259 
Q 2797 -91 1919 -91 
Q 1588 -91 1214 -16 
Q 841 59 441 206 
L 441 856 
Q 825 641 1194 531 
Q 1563 422 1919 422 
Q 2459 422 2753 634 
Q 3047 847 3047 1241 
Q 3047 1584 2836 1778 
Q 2625 1972 2144 2069 
L 1759 2144 
Q 1053 2284 737 2584 
Q 422 2884 422 3419 
Q 422 4038 858 4394 
Q 1294 4750 2059 4750 
Q 2388 4750 2728 4690 
Q 3069 4631 3425 4513 
z
" transform="scale(0.015625)"/>
      <path id="DejaVuSans-6f" d="M 1959 3097 
Q 1497 3097 1228 2736 
Q 959 2375 959 1747 
Q 959 1119 1226 758 
Q 1494 397 1959 397 
Q 2419 397 2687 759 
Q 2956 1122 2956 1747 
Q 2956 2369 2687 2733 
Q 2419 3097 1959 3097 
z
M 1959 3584 
Q 2709 3584 3137 3096 
Q 3566 2609 3566 1747 
Q 3566 888 3137 398 
Q 2709 -91 1959 -91 
Q 1206 -91 779 398 
Q 353 888 353 1747 
Q 353 2609 779 3096 
Q 1206 3584 1959 3584 
z
" transform="scale(0.015625)"/>
      <path id="DejaVuSans-75" d="M 544 1381 
L 544 3500 
L 1119 3500 
L 1119 1403 
Q 1119 906 1312 657 
Q 1506 409 1894 409 
Q 2359 409 2629 706 
Q 2900 1003 2900 1516 
L 2900 3500 
L 3475 3500 
L 3475 0 
L 2900 0 
L 2900 538 
Q 2691 219 2414 64 
Q 2138 -91 1772 -91 
Q 1169 -91 856 284 
Q 544 659 544 1381 
z
M 1991 3584 
L 1991 3584 
z
" transform="scale(0.015625)"/>
      <path id="DejaVuSans-72" d="M 2631 2963 
Q 2534 3019 2420 3045 
Q 2306 3072 2169 3072 
Q 1681 3072 1420 2755 
Q 1159 2438 1159 1844 
L 1159 0 
L 581 0 
L 581 3500 
L 1159 3500 
L 1159 2956 
Q 1341 3275 1631 3429 
Q 1922 3584 2338 3584 
Q 2397 3584 2469 3576 
Q 2541 3569 2628 3553 
L 2631 2963 
z
" transform="scale(0.015625)"/>
      <path id="DejaVuSans-63" d="M 3122 3366 
L 3122 2828 
Q 2878 2963 2633 3030 
Q 2388 3097 2138 3097 
Q 1578 3097 1268 2742 
Q 959 2388 959 1747 
Q 959 1106 1268 751 
Q 1578 397 2138 397 
Q 2388 397 2633 464 
Q 2878 531 3122 666 
L 3122 134 
Q 2881 22 2623 -34 
Q 2366 -91 2075 -91 
Q 1284 -91 818 406 
Q 353 903 353 1747 
Q 353 2603 823 3093 
Q 1294 3584 2113 3584 
Q 2378 3584 2631 3529 
Q 2884 3475 3122 3366 
z
" transform="scale(0.015625)"/>
      <path id="DejaVuSans-65" d="M 3597 1894 
L 3597 1613 
L 953 1613 
Q 991 1019 1311 708 
Q 1631 397 2203 397 
Q 2534 397 2845 478 
Q 3156 559 3463 722 
L 3463 178 
Q 3153 47 2828 -22 
Q 2503 -91 2169 -91 
Q 1331 -91 842 396 
Q 353 884 353 1716 
Q 353 2575 817 3079 
Q 1281 3584 2069 3584 
Q 2775 3584 3186 3129 
Q 3597 2675 3597 1894 
z
M 3022 2063 
Q 3016 2534 2758 2815 
Q 2500 3097 2075 3097 
Q 1594 3097 1305 2825 
Q 1016 2553 972 2059 
L 3022 2063 
z
" transform="scale(0.015625)"/>
      <path id="DejaVuSans-3a" d="M 750 794 
L 1409 794 
L 1409 0 
L 750 0 
L 750 794 
z
M 750 3309 
L 1409 3309 
L 1409 2516 
L 750 2516 
L 750 3309 
z
" transform="scale(0.015625)"/>
      <path id="DejaVuSans-20" transform="scale(0.015625)"/>
      <path id="DejaVuSans-4c" d="M 628 4666 
L 1259 4666 
L 1259 531 
L 3531 531 
L 3531 0 
L 628 0 
L 628 4666 
z
" transform="scale(0.015625)"/>
      <path id="DejaVuSans-61" d="M 2194 1759 
Q 1497 1759 1228 1600 
Q 959 1441 959 1056 
Q 959 750 1161 570 
Q 1363 391 1709 391 
Q 2188 391 2477 730 
Q 2766 1069 2766 1631 
L 2766 1759 
L 2194 1759 
z
M 3341 1997 
L 3341 0 
L 2766 0 
L 2766 531 
Q 2569 213 2275 61 
Q 1981 -91 1556 -91 
Q 1019 -91 701 211 
Q 384 513 384 1019 
Q 384 1609 779 1909 
Q 1175 2209 1959 2209 
L 2766 2209 
L 2766 2266 
Q 2766 2663 2505 2880 
Q 2244 3097 1772 3097 
Q 1472 3097 1187 3025 
Q 903 2953 641 2809 
L 641 3341 
Q 956 3463 1253 3523 
Q 1550 3584 1831 3584 
Q 2591 3584 2966 3190 
Q 3341 2797 3341 1997 
z
" transform="scale(0.015625)"/>
      <path id="DejaVuSans-64" d="M 2906 2969 
L 2906 4863 
L 3481 4863 
L 3481 0 
L 2906 0 
L 2906 525 
Q 2725 213 2448 61 
Q 2172 -91 1784 -91 
Q 1150 -91 751 415 
Q 353 922 353 1747 
Q 353 2572 751 3078 
Q 1150 3584 1784 3584 
Q 2172 3584 2448 3432 
Q 2725 3281 2906 2969 
z
M 947 1747 
Q 947 1113 1208 752 
Q 1469 391 1925 391 
Q 2381 391 2643 752 
Q 2906 1113 2906 1747 
Q 2906 2381 2643 2742 
Q 2381 3103 1925 3103 
Q 1469 3103 1208 2742 
Q 947 2381 947 1747 
z
" transform="scale(0.015625)"/>
      <path id="DejaVuSans-73" d="M 2834 3397 
L 2834 2853 
Q 2591 2978 2328 3040 
Q 2066 3103 1784 3103 
Q 1356 3103 1142 2972 
Q 928 2841 928 2578 
Q 928 2378 1081 2264 
Q 1234 2150 1697 2047 
L 1894 2003 
Q 2506 1872 2764 1633 
Q 3022 1394 3022 966 
Q 3022 478 2636 193 
Q 2250 -91 1575 -91 
Q 1294 -91 989 -36 
Q 684 19 347 128 
L 347 722 
Q 666 556 975 473 
Q 1284 391 1588 391 
Q 1994 391 2212 530 
Q 2431 669 2431 922 
Q 2431 1156 2273 1281 
Q 2116 1406 1581 1522 
L 1381 1569 
Q 847 1681 609 1914 
Q 372 2147 372 2553 
Q 372 3047 722 3315 
Q 1072 3584 1716 3584 
Q 2034 3584 2315 3537 
Q 2597 3491 2834 3397 
z
" transform="scale(0.015625)"/>
      <path id="DejaVuSans-2c" d="M 750 794 
L 1409 794 
L 1409 256 
L 897 -744 
L 494 -744 
L 750 256 
L 750 794 
z
" transform="scale(0.015625)"/>
      <path id="DejaVuSans-49" d="M 628 4666 
L 1259 4666 
L 1259 0 
L 628 0 
L 628 4666 
z
" transform="scale(0.015625)"/>
      <path id="DejaVuSans-6e" d="M 3513 2113 
L 3513 0 
L 2938 0 
L 2938 2094 
Q 2938 2591 2744 2837 
Q 2550 3084 2163 3084 
Q 1697 3084 1428 2787 
Q 1159 2491 1159 1978 
L 1159 0 
L 581 0 
L 581 3500 
L 1159 3500 
L 1159 2956 
Q 1366 3272 1645 3428 
Q 1925 3584 2291 3584 
Q 2894 3584 3203 3211 
Q 3513 2838 3513 2113 
z
" transform="scale(0.015625)"/>
      <path id="DejaVuSans-2e" d="M 684 794 
L 1344 794 
L 1344 0 
L 684 0 
L 684 794 
z
" transform="scale(0.015625)"/>
      <path id="DejaVuSans-45" d="M 628 4666 
L 3578 4666 
L 3578 4134 
L 1259 4134 
L 1259 2753 
L 3481 2753 
L 3481 2222 
L 1259 2222 
L 1259 531 
L 3634 531 
L 3634 0 
L 628 0 
L 628 4666 
z
" transform="scale(0.015625)"/>
      <path id="DejaVuSans-79" d="M 2059 -325 
Q 1816 -950 1584 -1140 
Q 1353 -1331 966 -1331 
L 506 -1331 
L 506 -850 
L 844 -850 
Q 1081 -850 1212 -737 
Q 1344 -625 1503 -206 
L 1606 56 
L 191 3500 
L 800 3500 
L 1894 763 
L 2988 3500 
L 3597 3500 
L 2059 -325 
z
" transform="scale(0.015625)"/>
      <path id="DejaVuSans-2d" d="M 313 2009 
L 1997 2009 
L 1997 1497 
L 313 1497 
L 313 2009 
z
" transform="scale(0.015625)"/>
      <path id="DejaVuSans-54" d="M -19 4666 
L 3928 4666 
L 3928 4134 
L 2272 4134 
L 2272 0 
L 1638 0 
L 1638 4134 
L -19 4134 
L -19 4666 
z
" transform="scale(0.015625)"/>
      <path id="DejaVuSans-6b" d="M 581 4863 
L 1159 4863 
L 1159 1991 
L 2875 3500 
L 3609 3500 
L 1753 1863 
L 3688 0 
L 2938 0 
L 1159 1709 
L 1159 0 
L 581 0 
L 581 4863 
z
" transform="scale(0.015625)"/>
      <path id="DejaVuSans-69" d="M 603 3500 
L 1178 3500 
L 1178 0 
L 603 0 
L 603 3500 
z
M 603 4863 
L 1178 4863 
L 1178 4134 
L 603 4134 
L 603 4863 
z
" transform="scale(0.015625)"/>
      <path id="DejaVuSans-67" d="M 2906 1791 
Q 2906 2416 2648 2759 
Q 2391 3103 1925 3103 
Q 1463 3103 1205 2759 
Q 947 2416 947 1791 
Q 947 1169 1205 825 
Q 1463 481 1925 481 
Q 2391 481 2648 825 
Q 2906 1169 2906 1791 
z
M 3481 434 
Q 3481 -459 3084 -895 
Q 2688 -1331 1869 -1331 
Q 1566 -1331 1297 -1286 
Q 1028 -1241 775 -1147 
L 775 -588 
Q 1028 -725 1275 -790 
Q 1522 -856 1778 -856 
Q 2344 -856 2625 -561 
Q 2906 -266 2906 331 
L 2906 616 
Q 2728 306 2450 153 
Q 2172 0 1784 0 
Q 1141 0 747 490 
Q 353 981 353 1791 
Q 353 2603 747 3093 
Q 1141 3584 1784 3584 
Q 2172 3584 2450 3431 
Q 2728 3278 2906 2969 
L 2906 3500 
L 3481 3500 
L 3481 434 
z
" transform="scale(0.015625)"/>
      <path id="DejaVuSans-74" d="M 1172 4494 
L 1172 3500 
L 2356 3500 
L 2356 3053 
L 1172 3053 
L 1172 1153 
Q 1172 725 1289 603 
Q 1406 481 1766 481 
L 2356 481 
L 2356 0 
L 1766 0 
Q 1100 0 847 248 
Q 594 497 594 1153 
L 594 3053 
L 172 3053 
L 172 3500 
L 594 3500 
L 594 4494 
L 1172 4494 
z
" transform="scale(0.015625)"/>
      <path id="DejaVuSans-28" d="M 1984 4856 
Q 1566 4138 1362 3434 
Q 1159 2731 1159 2009 
Q 1159 1288 1364 580 
Q 1569 -128 1984 -844 
L 1484 -844 
Q 1016 -109 783 600 
Q 550 1309 550 2009 
Q 550 2706 781 3412 
Q 1013 4119 1484 4856 
L 1984 4856 
z
" transform="scale(0.015625)"/>
      <path id="DejaVuSans-32" d="M 1228 531 
L 3431 531 
L 3431 0 
L 469 0 
L 469 531 
Q 828 903 1448 1529 
Q 2069 2156 2228 2338 
Q 2531 2678 2651 2914 
Q 2772 3150 2772 3378 
Q 2772 3750 2511 3984 
Q 2250 4219 1831 4219 
Q 1534 4219 1204 4116 
Q 875 4013 500 3803 
L 500 4441 
Q 881 4594 1212 4672 
Q 1544 4750 1819 4750 
Q 2544 4750 2975 4387 
Q 3406 4025 3406 3419 
Q 3406 3131 3298 2873 
Q 3191 2616 2906 2266 
Q 2828 2175 2409 1742 
Q 1991 1309 1228 531 
z
" transform="scale(0.015625)"/>
      <path id="DejaVuSans-30" d="M 2034 4250 
Q 1547 4250 1301 3770 
Q 1056 3291 1056 2328 
Q 1056 1369 1301 889 
Q 1547 409 2034 409 
Q 2525 409 2770 889 
Q 3016 1369 3016 2328 
Q 3016 3291 2770 3770 
Q 2525 4250 2034 4250 
z
M 2034 4750 
Q 2819 4750 3233 4129 
Q 3647 3509 3647 2328 
Q 3647 1150 3233 529 
Q 2819 -91 2034 -91 
Q 1250 -91 836 529 
Q 422 1150 422 2328 
Q 422 3509 836 4129 
Q 1250 4750 2034 4750 
z
" transform="scale(0.015625)"/>
      <path id="DejaVuSans-31" d="M 794 531 
L 1825 531 
L 1825 4091 
L 703 3866 
L 703 4441 
L 1819 4666 
L 2450 4666 
L 2450 531 
L 3481 531 
L 3481 0 
L 794 0 
L 794 531 
z
" transform="scale(0.015625)"/>
      <path id="DejaVuSans-38" d="M 2034 2216 
Q 1584 2216 1326 1975 
Q 1069 1734 1069 1313 
Q 1069 891 1326 650 
Q 1584 409 2034 409 
Q 2484 409 2743 651 
Q 3003 894 3003 1313 
Q 3003 1734 2745 1975 
Q 2488 2216 2034 2216 
z
M 1403 2484 
Q 997 2584 770 2862 
Q 544 3141 544 3541 
Q 544 4100 942 4425 
Q 1341 4750 2034 4750 
Q 2731 4750 3128 4425 
Q 3525 4100 3525 3541 
Q 3525 3141 3298 2862 
Q 3072 2584 2669 2484 
Q 3125 2378 3379 2068 
Q 3634 1759 3634 1313 
Q 3634 634 3220 271 
Q 2806 -91 2034 -91 
Q 1263 -91 848 271 
Q 434 634 434 1313 
Q 434 1759 690 2068 
Q 947 2378 1403 2484 
z
M 1172 3481 
Q 1172 3119 1398 2916 
Q 1625 2713 2034 2713 
Q 2441 2713 2670 2916 
Q 2900 3119 2900 3481 
Q 2900 3844 2670 4047 
Q 2441 4250 2034 4250 
Q 1625 4250 1398 4047 
Q 1172 3844 1172 3481 
z
" transform="scale(0.015625)"/>
      <path id="DejaVuSans-29" d="M 513 4856 
L 1013 4856 
Q 1481 4119 1714 3412 
Q 1947 2706 1947 2009 
Q 1947 1309 1714 600 
Q 1481 -109 1013 -844 
L 513 -844 
Q 928 -128 1133 580 
Q 1338 1288 1338 2009 
Q 1338 2731 1133 3434 
Q 928 4138 513 4856 
z
" transform="scale(0.015625)"/>
     </defs>
     <use xlink:href="#DejaVuSans-53"/>
     <use xlink:href="#DejaVuSans-6f" x="63.476562"/>
     <use xlink:href="#DejaVuSans-75" x="124.658203"/>
     <use xlink:href="#DejaVuSans-72" x="188.037109"/>
     <use xlink:href="#DejaVuSans-63" x="226.900391"/>
     <use xlink:href="#DejaVuSans-65" x="281.880859"/>
     <use xlink:href="#DejaVuSans-3a" x="343.404297"/>
     <use xlink:href="#DejaVuSans-20" x="377.095703"/>
     <use xlink:href="#DejaVuSans-4c" x="408.882812"/>
     <use xlink:href="#DejaVuSans-61" x="464.595703"/>
     <use xlink:href="#DejaVuSans-64" x="525.875"/>
     <use xlink:href="#DejaVuSans-64" x="589.351562"/>
     <use xlink:href="#DejaVuSans-65" x="652.828125"/>
     <use xlink:href="#DejaVuSans-72" x="714.351562"/>
     <use xlink:href="#DejaVuSans-73" x="755.464844"/>
     <use xlink:href="#DejaVuSans-2c" x="807.564453"/>
     <use xlink:href="#DejaVuSans-20" x="839.351562"/>
     <use xlink:href="#DejaVuSans-49" x="871.138672"/>
     <use xlink:href="#DejaVuSans-6e" x="900.630859"/>
     <use xlink:href="#DejaVuSans-63" x="964.009766"/>
     <use xlink:href="#DejaVuSans-2e" x="1018.990234"/>
     <use xlink:href="#DejaVuSans-20" x="1050.777344"/>
     <use xlink:href="#DejaVuSans-45" x="1082.564453"/>
     <use xlink:href="#DejaVuSans-79" x="1145.748047"/>
     <use xlink:href="#DejaVuSans-65" x="1204.927734"/>
     <use xlink:href="#DejaVuSans-2d" x="1266.451172"/>
     <use xlink:href="#DejaVuSans-54" x="1293.410156"/>
     <use xlink:href="#DejaVuSans-72" x="1339.744141"/>
     <use xlink:href="#DejaVuSans-61" x="1380.857422"/>
     <use xlink:href="#DejaVuSans-63" x="1442.136719"/>
     <use xlink:href="#DejaVuSans-6b" x="1497.117188"/>
     <use xlink:href="#DejaVuSans-69" x="1555.027344"/>
     <use xlink:href="#DejaVuSans-6e" x="1582.810547"/>
     <use xlink:href="#DejaVuSans-67" x="1646.189453"/>
     <use xlink:href="#DejaVuSans-20" x="1709.666016"/>
     <use xlink:href="#DejaVuSans-53" x="1741.453125"/>
     <use xlink:href="#DejaVuSans-74" x="1804.929688"/>
     <use xlink:href="#DejaVuSans-75" x="1844.138672"/>
     <use xlink:href="#DejaVuSans-64" x="1907.517578"/>
     <use xlink:href="#DejaVuSans-79" x="1970.994141"/>
     <use xlink:href="#DejaVuSans-20" x="2030.173828"/>
     <use xlink:href="#DejaVuSans-28" x="2061.960938"/>
     <use xlink:href="#DejaVuSans-32" x="2100.974609"/>
     <use xlink:href="#DejaVuSans-30" x="2164.597656"/>
     <use xlink:href="#DejaVuSans-31" x="2228.220703"/>
     <use xlink:href="#DejaVuSans-38" x="2291.84375"/>
     <use xlink:href="#DejaVuSans-29" x="2355.466797"/>
    </g>
   </g>
   <g id="patch_3">
    <path d="M 84.807 80.224034 
Q 84.807 85.131171 84.807 88.473059 
" clip-path="url(#pb04c4cee9d)" style="fill: none; opacity: 0.9; stroke: #fdb94a; stroke-width: 1.4; stroke-linecap: round"/>
    <path d="M 87.007 84.073059 
L 84.807 88.473059 
L 82.607 84.073059 
z
" clip-path="url(#pb04c4cee9d)" style="fill: #fdb94a; opacity: 0.9; stroke: #fdb94a; stroke-width: 1.4; stroke-linecap: round"/>
   </g>
   <g id="text_3">
    <!-- Current job title and company -->
    <g style="fill: #f4f6fa" transform="translate(150.093 68.872728) scale(0.105 -0.105)">
     <defs>
      <path id="DejaVuSans-43" d="M 4122 4306 
L 4122 3641 
Q 3803 3938 3442 4084 
Q 3081 4231 2675 4231 
Q 1875 4231 1450 3742 
Q 1025 3253 1025 2328 
Q 1025 1406 1450 917 
Q 1875 428 2675 428 
Q 3081 428 3442 575 
Q 3803 722 4122 1019 
L 4122 359 
Q 3791 134 3420 21 
Q 3050 -91 2638 -91 
Q 1578 -91 968 557 
Q 359 1206 359 2328 
Q 359 3453 968 4101 
Q 1578 4750 2638 4750 
Q 3056 4750 3426 4639 
Q 3797 4528 4122 4306 
z
" transform="scale(0.015625)"/>
      <path id="DejaVuSans-6a" d="M 603 3500 
L 1178 3500 
L 1178 -63 
Q 1178 -731 923 -1031 
Q 669 -1331 103 -1331 
L -116 -1331 
L -116 -844 
L 38 -844 
Q 366 -844 484 -692 
Q 603 -541 603 -63 
L 603 3500 
z
M 603 4863 
L 1178 4863 
L 1178 4134 
L 603 4134 
L 603 4863 
z
" transform="scale(0.015625)"/>
      <path id="DejaVuSans-62" d="M 3116 1747 
Q 3116 2381 2855 2742 
Q 2594 3103 2138 3103 
Q 1681 3103 1420 2742 
Q 1159 2381 1159 1747 
Q 1159 1113 1420 752 
Q 1681 391 2138 391 
Q 2594 391 2855 752 
Q 3116 1113 3116 1747 
z
M 1159 2969 
Q 1341 3281 1617 3432 
Q 1894 3584 2278 3584 
Q 2916 3584 3314 3078 
Q 3713 2572 3713 1747 
Q 3713 922 3314 415 
Q 2916 -91 2278 -91 
Q 1894 -91 1617 61 
Q 1341 213 1159 525 
L 1159 0 
L 581 0 
L 581 4863 
L 1159 4863 
L 1159 2969 
z
" transform="scale(0.015625)"/>
      <path id="DejaVuSans-6c" d="M 603 4863 
L 1178 4863 
L 1178 0 
L 603 0 
L 603 4863 
z
" transform="scale(0.015625)"/>
      <path id="DejaVuSans-6d" d="M 3328 2828 
Q 3544 3216 3844 3400 
Q 4144 3584 4550 3584 
Q 5097 3584 5394 3201 
Q 5691 2819 5691 2113 
L 5691 0 
L 5113 0 
L 5113 2094 
Q 5113 2597 4934 2840 
Q 4756 3084 4391 3084 
Q 3944 3084 3684 2787 
Q 3425 2491 3425 1978 
L 3425 0 
L 2847 0 
L 2847 2094 
Q 2847 2600 2669 2842 
Q 2491 3084 2119 3084 
Q 1678 3084 1418 2786 
Q 1159 2488 1159 1978 
L 1159 0 
L 581 0 
L 581 3500 
L 1159 3500 
L 1159 2956 
Q 1356 3278 1631 3431 
Q 1906 3584 2284 3584 
Q 2666 3584 2933 3390 
Q 3200 3197 3328 2828 
z
" transform="scale(0.015625)"/>
      <path id="DejaVuSans-70" d="M 1159 525 
L 1159 -1331 
L 581 -1331 
L 581 3500 
L 1159 3500 
L 1159 2969 
Q 1341 3281 1617 3432 
Q 1894 3584 2278 3584 
Q 2916 3584 3314 3078 
Q 3713 2572 3713 1747 
Q 3713 922 3314 415 
Q 2916 -91 2278 -91 
Q 1894 -91 1617 61 
Q 1341 213 1159 525 
z
M 3116 1747 
Q 3116 2381 2855 2742 
Q 2594 3103 2138 3103 
Q 1681 3103 1420 2742 
Q 1159 2381 1159 1747 
Q 1159 1113 1420 752 
Q 1681 391 2138 391 
Q 2594 391 2855 752 
Q 3116 1113 3116 1747 
z
" transform="scale(0.015625)"/>
     </defs>
     <use xlink:href="#DejaVuSans-43"/>
     <use xlink:href="#DejaVuSans-75" x="69.824219"/>
     <use xlink:href="#DejaVuSans-72" x="133.203125"/>
     <use xlink:href="#DejaVuSans-72" x="172.566406"/>
     <use xlink:href="#DejaVuSans-65" x="211.429688"/>
     <use xlink:href="#DejaVuSans-6e" x="272.953125"/>
     <use xlink:href="#DejaVuSans-74" x="336.332031"/>
     <use xlink:href="#DejaVuSans-20" x="375.541016"/>
     <use xlink:href="#DejaVuSans-6a" x="407.328125"/>
     <use xlink:href="#DejaVuSans-6f" x="435.111328"/>
     <use xlink:href="#DejaVuSans-62" x="496.292969"/>
     <use xlink:href="#DejaVuSans-20" x="559.769531"/>
     <use xlink:href="#DejaVuSans-74" x="591.556641"/>
     <use xlink:href="#DejaVuSans-69" x="630.765625"/>
     <use xlink:href="#DejaVuSans-74" x="658.548828"/>
     <use xlink:href="#DejaVuSans-6c" x="697.757812"/>
     <use xlink:href="#DejaVuSans-65" x="725.541016"/>
     <use xlink:href="#DejaVuSans-20" x="787.064453"/>
     <use xlink:href="#DejaVuSans-61" x="818.851562"/>
     <use xlink:href="#DejaVuSans-6e" x="880.130859"/>
     <use xlink:href="#DejaVuSans-64" x="943.509766"/>
     <use xlink:href="#DejaVuSans-20" x="1006.986328"/>
     <use xlink:href="#DejaVuSans-63" x="1038.773438"/>
     <use xlink:href="#DejaVuSans-6f" x="1093.753906"/>
     <use xlink:href="#DejaVuSans-6d" x="1154.935547"/>
     <use xlink:href="#DejaVuSans-70" x="1252.347656"/>
     <use xlink:href="#DejaVuSans-61" x="1315.824219"/>
     <use xlink:href="#DejaVuSans-6e" x="1377.103516"/>
     <use xlink:href="#DejaVuSans-79" x="1440.482422"/>
    </g>
   </g>
   <g id="patch_4">
    <path d="M 84.807 118.795111 
Q 84.807 123.702248 84.807 127.044136 
" clip-path="url(#pb04c4cee9d)" style="fill: none; opacity: 0.9; stroke: #fdb94a; stroke-width: 1.4; stroke-linecap: round"/>
    <path d="M 87.007 122.644136 
L 84.807 127.044136 
L 82.607 122.644136 
z
" clip-path="url(#pb04c4cee9d)" style="fill: #fdb94a; opacity: 0.9; stroke: #fdb94a; stroke-width: 1.4; stroke-linecap: round"/>
   </g>
   <g id="text_4">
    <!-- Previous role and dates -->
    <g style="fill: #f4f6fa" transform="translate(150.093 107.443805) scale(0.105 -0.105)">
     <defs>
      <path id="DejaVuSans-50" d="M 1259 4147 
L 1259 2394 
L 2053 2394 
Q 2494 2394 2734 2622 
Q 2975 2850 2975 3272 
Q 2975 3691 2734 3919 
Q 2494 4147 2053 4147 
L 1259 4147 
z
M 628 4666 
L 2053 4666 
Q 2838 4666 3239 4311 
Q 3641 3956 3641 3272 
Q 3641 2581 3239 2228 
Q 2838 1875 2053 1875 
L 1259 1875 
L 1259 0 
L 628 0 
L 628 4666 
z
" transform="scale(0.015625)"/>
      <path id="DejaVuSans-76" d="M 191 3500 
L 800 3500 
L 1894 563 
L 2988 3500 
L 3597 3500 
L 2284 0 
L 1503 0 
L 191 3500 
z
" transform="scale(0.015625)"/>
     </defs>
     <use xlink:href="#DejaVuSans-50"/>
     <use xlink:href="#DejaVuSans-72" x="58.552734"/>
     <use xlink:href="#DejaVuSans-65" x="97.416016"/>
     <use xlink:href="#DejaVuSans-76" x="158.939453"/>
     <use xlink:href="#DejaVuSans-69" x="218.119141"/>
     <use xlink:href="#DejaVuSans-6f" x="245.902344"/>
     <use xlink:href="#DejaVuSans-75" x="307.083984"/>
     <use xlink:href="#DejaVuSans-73" x="370.462891"/>
     <use xlink:href="#DejaVuSans-20" x="422.5625"/>
     <use xlink:href="#DejaVuSans-72" x="454.349609"/>
     <use xlink:href="#DejaVuSans-6f" x="493.212891"/>
     <use xlink:href="#DejaVuSans-6c" x="554.394531"/>
     <use xlink:href="#DejaVuSans-65" x="582.177734"/>
     <use xlink:href="#DejaVuSans-20" x="643.701172"/>
     <use xlink:href="#DejaVuSans-61" x="675.488281"/>
     <use xlink:href="#DejaVuSans-6e" x="736.767578"/>
     <use xlink:href="#DejaVuSans-64" x="800.146484"/>
     <use xlink:href="#DejaVuSans-20" x="863.623047"/>
     <use xlink:href="#DejaVuSans-64" x="895.410156"/>
     <use xlink:href="#DejaVuSans-61" x="958.886719"/>
     <use xlink:href="#DejaVuSans-74" x="1020.166016"/>
     <use xlink:href="#DejaVuSans-65" x="1059.375"/>
     <use xlink:href="#DejaVuSans-73" x="1120.898438"/>
    </g>
   </g>
   <g id="patch_5">
    <path d="M 84.807 157.366188 
Q 84.807 162.273325 84.807 165.615213 
" clip-path="url(#pb04c4cee9d)" style="fill: none; opacity: 0.9; stroke: #fdb94a; stroke-width: 1.4; stroke-linecap: round"/>
    <path d="M 87.007 161.215213 
L 84.807 165.615213 
L 82.607 161.215213 
z
" clip-path="url(#pb04c4cee9d)" style="fill: #fdb94a; opacity: 0.9; stroke: #fdb94a; stroke-width: 1.4; stroke-linecap: round"/>
   </g>
   <g id="text_5">
    <!-- Education -->
    <g style="fill: #f4f6fa" transform="translate(150.093 146.014882) scale(0.105 -0.105)">
     <use xlink:href="#DejaVuSans-45"/>
     <use xlink:href="#DejaVuSans-64" x="63.183594"/>
     <use xlink:href="#DejaVuSans-75" x="126.660156"/>
     <use xlink:href="#DejaVuSans-63" x="190.039062"/>
     <use xlink:href="#DejaVuSans-61" x="245.019531"/>
     <use xlink:href="#DejaVuSans-74" x="306.298828"/>
     <use xlink:href="#DejaVuSans-69" x="345.507812"/>
     <use xlink:href="#DejaVuSans-6f" x="373.291016"/>
     <use xlink:href="#DejaVuSans-6e" x="434.472656"/>
    </g>
   </g>
   <g id="text_6">
    <!-- Keywords that match the job ad -->
    <g style="fill: #f4f6fa" transform="translate(150.093 184.585959) scale(0.105 -0.105)">
     <defs>
      <path id="DejaVuSans-4b" d="M 628 4666 
L 1259 4666 
L 1259 2694 
L 3353 4666 
L 4166 4666 
L 1850 2491 
L 4331 0 
L 3500 0 
L 1259 2247 
L 1259 0 
L 628 0 
L 628 4666 
z
" transform="scale(0.015625)"/>
      <path id="DejaVuSans-77" d="M 269 3500 
L 844 3500 
L 1563 769 
L 2278 3500 
L 2956 3500 
L 3675 769 
L 4391 3500 
L 4966 3500 
L 4050 0 
L 3372 0 
L 2619 2869 
L 1863 0 
L 1184 0 
L 269 3500 
z
" transform="scale(0.015625)"/>
      <path id="DejaVuSans-68" d="M 3513 2113 
L 3513 0 
L 2938 0 
L 2938 2094 
Q 2938 2591 2744 2837 
Q 2550 3084 2163 3084 
Q 1697 3084 1428 2787 
Q 1159 2491 1159 1978 
L 1159 0 
L 581 0 
L 581 4863 
L 1159 4863 
L 1159 2956 
Q 1366 3272 1645 3428 
Q 1925 3584 2291 3584 
Q 2894 3584 3203 3211 
Q 3513 2838 3513 2113 
z
" transform="scale(0.015625)"/>
     </defs>
     <use xlink:href="#DejaVuSans-4b"/>
     <use xlink:href="#DejaVuSans-65" x="60.576172"/>
     <use xlink:href="#DejaVuSans-79" x="122.099609"/>
     <use xlink:href="#DejaVuSans-77" x="181.279297"/>
     <use xlink:href="#DejaVuSans-6f" x="263.066406"/>
     <use xlink:href="#DejaVuSans-72" x="324.248047"/>
     <use xlink:href="#DejaVuSans-64" x="363.611328"/>
     <use xlink:href="#DejaVuSans-73" x="427.087891"/>
     <use xlink:href="#DejaVuSans-20" x="479.1875"/>
     <use xlink:href="#DejaVuSans-74" x="510.974609"/>
     <use xlink:href="#DejaVuSans-68" x="550.183594"/>
     <use xlink:href="#DejaVuSans-61" x="613.5625"/>
     <use xlink:href="#DejaVuSans-74" x="674.841797"/>
     <use xlink:href="#DejaVuSans-20" x="714.050781"/>
     <use xlink:href="#DejaVuSans-6d" x="745.837891"/>
     <use xlink:href="#DejaVuSans-61" x="843.25"/>
     <use xlink:href="#DejaVuSans-74" x="904.529297"/>
     <use xlink:href="#DejaVuSans-63" x="943.738281"/>
     <use xlink:href="#DejaVuSans-68" x="998.71875"/>
     <use xlink:href="#DejaVuSans-20" x="1062.097656"/>
     <use xlink:href="#DejaVuSans-74" x="1093.884766"/>
     <use xlink:href="#DejaVuSans-68" x="1133.09375"/>
     <use xlink:href="#DejaVuSans-65" x="1196.472656"/>
     <use xlink:href="#DejaVuSans-20" x="1257.996094"/>
     <use xlink:href="#DejaVuSans-6a" x="1289.783203"/>
     <use xlink:href="#DejaVuSans-6f" x="1317.566406"/>
     <use xlink:href="#DejaVuSans-62" x="1378.748047"/>
     <use xlink:href="#DejaVuSans-20" x="1442.224609"/>
     <use xlink:href="#DejaVuSans-61" x="1474.011719"/>
     <use xlink:href="#DejaVuSans-64" x="1535.291016"/>
    </g>
   </g>
   <g id="patch_6">
    <path d="M 84.807 76.660615 
C 86.778878 76.660615 88.670258 75.534752 90.064586 73.530984 
C 91.458915 71.527215 92.24235 68.809141 92.24235 65.975385 
C 92.24235 63.141628 91.458915 60.423554 90.064586 58.419785 
C 88.670258 56.416017 86.778878 55.290154 84.807 55.290154 
C 82.835122 55.290154 80.943742 56.416017 79.549414 58.419785 
C 78.155085 60.423554 77.37165 63.141628 77.37165 65.975385 
C 77.37165 68.809141 78.155085 71.527215 79.549414 73.530984 
C 80.943742 75.534752 82.835122 76.660615 84.807 76.660615 
z
" clip-path="url(#pb04c4cee9d)" style="fill: #f7a21b; stroke: #162032; stroke-linejoin: miter"/>
   </g>
   <g id="patch_7">
    <path d="M 84.807 115.231692 
C 86.778878 115.231692 88.670258 114.105829 90.064586 112.102061 
C 91.458915 110.098292 92.24235 107.380218 92.24235 104.546462 
C 92.24235 101.712705 91.458915 98.994631 90.064586 96.990862 
C 88.670258 94.987094 86.778878 93.861231 84.807 93.861231 
C 82.835122 93.861231 80.943742 94.987094 79.549414 96.990862 
C 78.155085 98.994631 77.37165 101.712705 77.37165 104.546462 
C 77.37165 107.380218 78.155085 110.098292 79.549414 112.102061 
C 80.943742 114.105829 82.835122 115.231692 84.807 115.231692 
z
" clip-path="url(#pb04c4cee9d)" style="fill: #f7a21b; stroke: #162032; stroke-linejoin: miter"/>
   </g>
   <g id="patch_8">
    <path d="M 84.807 153.802769 
C 86.778878 153.802769 88.670258 152.676906 90.064586 150.673138 
C 91.458915 148.669369 92.24235 145.951295 92.24235 143.117538 
C 92.24235 140.283782 91.458915 137.565708 90.064586 135.561939 
C 88.670258 133.558171 86.778878 132.432308 84.807 132.432308 
C 82.835122 132.432308 80.943742 133.558171 79.549414 135.561939 
C 78.155085 137.565708 77.37165 140.283782 77.37165 143.117538 
C 77.37165 145.951295 78.155085 148.669369 79.549414 150.673138 
C 80.943742 152.676906 82.835122 153.802769 84.807 153.802769 
z
" clip-path="url(#pb04c4cee9d)" style="fill: #f7a21b; stroke: #162032; stroke-linejoin: miter"/>
   </g>
   <g id="patch_9">
    <path d="M 84.807 192.373846 
C 86.778878 192.373846 88.670258 191.247983 90.064586 189.244215 
C 91.458915 187.240446 92.24235 184.522372 92.24235 181.688615 
C 92.24235 178.854859 91.458915 176.136785 90.064586 174.133016 
C 88.670258 172.129248 86.778878 171.003385 84.807 171.003385 
C 82.835122 171.003385 80.943742 172.129248 79.549414 174.133016 
C 78.155085 176.136785 77.37165 178.854859 77.37165 181.688615 
C 77.37165 184.522372 78.155085 187.240446 79.549414 189.244215 
C 80.943742 191.247983 82.835122 192.373846 84.807 192.373846 
z
" clip-path="url(#pb04c4cee9d)" style="fill: #f7a21b; stroke: #162032; stroke-linejoin: miter"/>
   </g>
   <g id="text_7">
    <!-- 1 -->
    <g style="fill: #162032" transform="translate(81.154148 68.872728) scale(0.105 -0.105)">
     <defs>
      <path id="DejaVuSans-Bold-31" d="M 750 831 
L 1813 831 
L 1813 3847 
L 722 3622 
L 722 4441 
L 1806 4666 
L 2950 4666 
L 2950 831 
L 4013 831 
L 4013 0 
L 750 0 
L 750 831 
z
" transform="scale(0.015625)"/>
     </defs>
     <use xlink:href="#DejaVuSans-Bold-31"/>
    </g>
   </g>
   <g id="text_8">
    <!-- 2 -->
    <g style="fill: #162032" transform="translate(81.154148 107.443805) scale(0.105 -0.105)">
     <defs>
      <path id="DejaVuSans-Bold-32" d="M 1844 884 
L 3897 884 
L 3897 0 
L 506 0 
L 506 884 
L 2209 2388 
Q 2438 2594 2547 2791 
Q 2656 2988 2656 3200 
Q 2656 3528 2436 3728 
Q 2216 3928 1850 3928 
Q 1569 3928 1234 3808 
Q 900 3688 519 3450 
L 519 4475 
Q 925 4609 1322 4679 
Q 1719 4750 2100 4750 
Q 2938 4750 3402 4381 
Q 3866 4013 3866 3353 
Q 3866 2972 3669 2642 
Q 3472 2313 2841 1759 
L 1844 884 
z
" transform="scale(0.015625)"/>
     </defs>
     <use xlink:href="#DejaVuSans-Bold-32"/>
    </g>
   </g>
   <g id="text_9">
    <!-- 3 -->
    <g style="fill: #162032" transform="translate(81.154148 146.014882) scale(0.105 -0.105)">
     <defs>
      <path id="DejaVuSans-Bold-33" d="M 2981 2516 
Q 3453 2394 3698 2092 
Q 3944 1791 3944 1325 
Q 3944 631 3412 270 
Q 2881 -91 1863 -91 
Q 1503 -91 1142 -33 
Q 781 25 428 141 
L 428 1069 
Q 766 900 1098 814 
Q 1431 728 1753 728 
Q 2231 728 2486 893 
Q 2741 1059 2741 1369 
Q 2741 1688 2480 1852 
Q 2219 2016 1709 2016 
L 1228 2016 
L 1228 2791 
L 1734 2791 
Q 2188 2791 2409 2933 
Q 2631 3075 2631 3366 
Q 2631 3634 2415 3781 
Q 2200 3928 1806 3928 
Q 1516 3928 1219 3862 
Q 922 3797 628 3669 
L 628 4550 
Q 984 4650 1334 4700 
Q 1684 4750 2022 4750 
Q 2931 4750 3382 4451 
Q 3834 4153 3834 3553 
Q 3834 3144 3618 2883 
Q 3403 2622 2981 2516 
z
" transform="scale(0.015625)"/>
     </defs>
     <use xlink:href="#DejaVuSans-Bold-33"/>
    </g>
   </g>
   <g id="text_10">
    <!-- 4 -->
    <g style="fill: #162032" transform="translate(81.154148 184.585959) scale(0.105 -0.105)">
     <use xlink:href="#DejaVuSans-Bold-34"/>
    </g>
   </g>
  </g>
 </g>
 <defs>
  <clipPath id="pb04c4cee9d">
   <rect x="8.64" y="8.64" width="362.7" height="243.936"/>
  </clipPath>
 </defs>
</svg>
