<?xml version="1.0" encoding="utf-8" standalone="no"?>
<!DOCTYPE svg PUBLIC "-//W3C//DTD SVG 1.1//EN"
  "http://www.w3.org/Graphics/SVG/1.1/DTD/svg11.dtd">
<svg xmlns:xlink="http://www.w3.org/1999/xlink" width="379.98pt" height="243.4752pt" viewBox="0 0 379.98 243.4752" xmlns="http://www.w3.org/2000/svg" version="1.1">
 <metadata>
  <rdf:RDF xmlns:dc="http://purl.org/dc/elements/1.1/" xmlns:cc="http://creativecommons.org/ns#" xmlns:rdf="http://www.w3.org/1999/02/22-rdf-syntax-ns#">
   <cc:Work>
    <dc:type rdf:resource="http://purl.org/dc/dcmitype/StillImage"/>
    <dc:date>2026-07-03T07:14:24.990187</dc:date>
    <dc:format>image/svg+xml</dc:format>
    <dc:creator>
     <cc:Agent>
      <dc:title>Matplotlib v3.8.4, https://matplotlib.org/</dc:title>
     </cc:Agent>
    </dc:creator>
   </cc:Work>
  </rdf:RDF>
 </metadata>
 <defs>
  <style type="text/css">*{stroke-linejoin: round; stroke-linecap: butt}</style>
 </defs>
 <g id="figure_1">
  <g id="patch_1">
   <path d="M 0 243.4752 
L 379.98 243.4752 
L 379.98 0 
L 0 0 
L 0 243.4752 
z
" style="fill: none"/>
  </g>
  <g id="axes_1">
   <g id="patch_2">
    <path d="M 31.1274 65.771602 
Q 31.1274 69.180513 31.1274 70.800569 
" clip-path="url(#pb6ea5f9695)" style="fill: none; opacity: 0.85; stroke: #29b6d9; stroke-width: 1.6; stroke-linecap: round"/>
    <path d="M 33.7274 65.600569 
L 31.1274 70.800569 
L 28.5274 65.600569 
z
" clip-path="url(#pb6ea5f9695)" style="fill: #29b6d9; opacity: 0.85; stroke: #29b6d9; stroke-width: 1.6; stroke-linecap: round"/>
   </g>
   <g id="patch_3">
    <path d="M 56.8791 66.090489 
L 361.1844 66.090489 
Q 364.8114 66.090489 364.8114 60.937979 
L 364.8114 38.782185 
Q 364.8114 33.629675 361.1844 33.629675 
L 56.8791 33.629675 
Q 53.2521 33.629675 53.2521 38.782185 
L 53.2521 60.937979 
Q 53.2521 66.090489 56.8791 66.090489 
z
" clip-path="url(#pb6ea5f9695)" style="fill: #1f2e45; opacity: 0.92; stroke: #29b6d9; stroke-linejoin: miter"/>
   </g>
   <g id="patch_4">
    <path d="M 31.1274 105.961182 
Q 31.1274 109.370093 31.1274 110.990149 
" clip-path="url(#pb6ea5f9695)" style="fill: none; opacity: 0.85; stroke: #29b6d9; stroke-width: 1.6; stroke-linecap: round"/>
    <path d="M 33.7274 105.790149 
L 31.1274 110.990149 
L 28.5274 105.790149 
z
" clip-path="url(#pb6ea5f9695)" style="fill: #29b6d9; opacity: 0.85; stroke: #29b6d9; stroke-width: 1.6; stroke-linecap: round"/>
   </g>
   <g id="patch_5">
    <path d="M 56.8791 106.280069 
L 361.1844 106.280069 
Q 364.8114 106.280069 364.8114 101.127559 
L 364.8114 78.971765 
Q 364.8114 73.819255 361.1844 73.819255 
L 56.8791 73.819255 
Q 53.2521 73.819255 53.2521 78.971765 
L 53.2521 101.127559 
Q 53.2521 106.280069 56.8791 106.280069 
z
" clip-path="url(#pb6ea5f9695)" style="fill: #1f2e45; opacity: 0.92; stroke: #29b6d9; stroke-linejoin: miter"/>
   </g>
   <g id="patch_6">
    <path d="M 31.1274 146.150762 
Q 31.1274 149.559673 31.1274 151.179729 
" clip-path="url(#pb6ea5f9695)" style="fill: none; opacity: 0.85; stroke: #29b6d9; stroke-width: 1.6; stroke-linecap: round"/>
    <path d="M 33.7274 145.979729 
L 31.1274 151.179729 
L 28.5274 145.979729 
z
" clip-path="url(#pb6ea5f9695)" style="fill: #29b6d9; opacity: 0.85; stroke: #29b6d9; stroke-width: 1.6; stroke-linecap: round"/>
   </g>
   <g id="patch_7">
    <path d="M 56.8791 146.469649 
L 361.1844 146.469649 
Q 364.8114 146.469649 364.8114 141.317139 
L 364.8114 119.161345 
Q 364.8114 114.008835 361.1844 114.008835 
L 56.8791 114.008835 
Q 53.2521 114.008835 53.2521 119.161345 
L 53.2521 141.317139 
Q 53.2521 146.469649 56.8791 146.469649 
z
" clip-path="url(#pb6ea5f9695)" style="fill: #1f2e45; opacity: 0.92; stroke: #29b6d9; stroke-linejoin: miter"/>
   </g>
   <g id="patch_8">
    <path d="M 56.8791 186.659229 
L 361.1844 186.659229 
Q 364.8114 186.659229 364.8114 181.506719 
L 364.8114 159.350925 
Q 364.8114 154.198415 361.1844 154.198415 
L 56.8791 154.198415 
Q 53.2521 154.198415 53.2521 159.350925 
L 53.2521 181.506719 
Q 53.2521 186.659229 56.8791 186.659229 
z
" clip-path="url(#pb6ea5f9695)" style="fill: #1f2e45; opacity: 0.92; stroke: #29b6d9; stroke-linejoin: miter"/>
   </g>
   <g id="text_1">
    <!-- WorkHive Analytics Engine Flow -->
    <g style="fill: #f4f6fa" transform="translate(8.64 27.559075) scale(0.15 -0.15)">
     <defs>
      <path id="DejaVuSans-Bold-57" d="M 191 4666 
L 1344 4666 
L 2150 1275 
L 2950 4666 
L 4109 4666 
L 4909 1275 
L 5716 4666 
L 6859 4666 
L 5759 0 
L 4372 0 
L 3525 3547 
L 2688 0 
L 1300 0 
L 191 4666 
z
" transform="scale(0.015625)"/>
      <path id="DejaVuSans-Bold-6f" d="M 2203 2784 
Q 1831 2784 1636 2517 
Q 1441 2250 1441 1747 
Q 1441 1244 1636 976 
Q 1831 709 2203 709 
Q 2569 709 2762 976 
Q 2956 1244 2956 1747 
Q 2956 2250 2762 2517 
Q 2569 2784 2203 2784 
z
M 2203 3584 
Q 3106 3584 3614 3096 
Q 4122 2609 4122 1747 
Q 4122 884 3614 396 
Q 3106 -91 2203 -91 
Q 1297 -91 786 396 
Q 275 884 275 1747 
Q 275 2609 786 3096 
Q 1297 3584 2203 3584 
z
" transform="scale(0.015625)"/>
      <path id="DejaVuSans-Bold-72" d="M 3138 2547 
Q 2991 2616 2845 2648 
Q 2700 2681 2553 2681 
Q 2122 2681 1889 2404 
Q 1656 2128 1656 1613 
L 1656 0 
L 538 0 
L 538 3500 
L 1656 3500 
L 1656 2925 
Q 1872 3269 2151 3426 
Q 2431 3584 2822 3584 
Q 2878 3584 2943 3579 
Q 3009 3575 3134 3559 
L 3138 2547 
z
" transform="scale(0.015625)"/>
      <path id="DejaVuSans-Bold-6b" d="M 538 4863 
L 1656 4863 
L 1656 2216 
L 2944 3500 
L 4244 3500 
L 2534 1894 
L 4378 0 
L 3022 0 
L 1656 1459 
L 1656 0 
L 538 0 
L 538 4863 
z
" transform="scale(0.015625)"/>
      <path id="DejaVuSans-Bold-48" d="M 588 4666 
L 1791 4666 
L 1791 2888 
L 3566 2888 
L 3566 4666 
L 4769 4666 
L 4769 0 
L 3566 0 
L 3566 1978 
L 1791 1978 
L 1791 0 
L 588 0 
L 588 4666 
z
" transform="scale(0.015625)"/>
      <path id="DejaVuSans-Bold-69" d="M 538 3500 
L 1656 3500 
L 1656 0 
L 538 0 
L 538 3500 
z
M 538 4863 
L 1656 4863 
L 1656 3950 
L 538 3950 
L 538 4863 
z
" transform="scale(0.015625)"/>
      <path id="DejaVuSans-Bold-76" d="M 97 3500 
L 1216 3500 
L 2088 1081 
L 2956 3500 
L 4078 3500 
L 2700 0 
L 1472 0 
L 97 3500 
z
" transform="scale(0.015625)"/>
      <path id="DejaVuSans-Bold-65" d="M 4031 1759 
L 4031 1441 
L 1416 1441 
Q 1456 1047 1700 850 
Q 1944 653 2381 653 
Q 2734 653 3104 758 
Q 3475 863 3866 1075 
L 3866 213 
Q 3469 63 3072 -14 
Q 2675 -91 2278 -91 
Q 1328 -91 801 392 
Q 275 875 275 1747 
Q 275 2603 792 3093 
Q 1309 3584 2216 3584 
Q 3041 3584 3536 3087 
Q 4031 2591 4031 1759 
z
M 2881 2131 
Q 2881 2450 2695 2645 
Q 2509 2841 2209 2841 
Q 1884 2841 1681 2658 
Q 1478 2475 1428 2131 
L 2881 2131 
z
" transform="scale(0.015625)"/>
      <path id="DejaVuSans-Bold-20" transform="scale(0.015625)"/>
      <path id="DejaVuSans-Bold-41" d="M 3419 850 
L 1538 850 
L 1241 0 
L 31 0 
L 1759 4666 
L 3194 4666 
L 4922 0 
L 3713 0 
L 3419 850 
z
M 1838 1716 
L 3116 1716 
L 2478 3572 
L 1838 1716 
z
" transform="scale(0.015625)"/>
      <path id="DejaVuSans-Bold-6e" d="M 4056 2131 
L 4056 0 
L 2931 0 
L 2931 347 
L 2931 1631 
Q 2931 2084 2911 2256 
Q 2891 2428 2841 2509 
Q 2775 2619 2662 2680 
Q 2550 2741 2406 2741 
Q 2056 2741 1856 2470 
Q 1656 2200 1656 1722 
L 1656 0 
L 538 0 
L 538 3500 
L 1656 3500 
L 1656 2988 
Q 1909 3294 2193 3439 
Q 2478 3584 2822 3584 
Q 3428 3584 3742 3212 
Q 4056 2841 4056 2131 
z
" transform="scale(0.015625)"/>
      <path id="DejaVuSans-Bold-61" d="M 2106 1575 
Q 1756 1575 1579 1456 
Q 1403 1338 1403 1106 
Q 1403 894 1545 773 
Q 1688 653 1941 653 
Q 2256 653 2472 879 
Q 2688 1106 2688 1447 
L 2688 1575 
L 2106 1575 
z
M 3816 1997 
L 3816 0 
L 2688 0 
L 2688 519 
Q 2463 200 2181 54 
Q 1900 -91 1497 -91 
Q 953 -91 614 226 
Q 275 544 275 1050 
Q 275 1666 698 1953 
Q 1122 2241 2028 2241 
L 2688 2241 
L 2688 2328 
Q 2688 2594 2478 2717 
Q 2269 2841 1825 2841 
Q 1466 2841 1156 2769 
Q 847 2697 581 2553 
L 581 3406 
Q 941 3494 1303 3539 
Q 1666 3584 2028 3584 
Q 2975 3584 3395 3211 
Q 3816 2838 3816 1997 
z
" transform="scale(0.015625)"/>
      <path id="DejaVuSans-Bold-6c" d="M 538 4863 
L 1656 4863 
L 1656 0 
L 538 0 
L 538 4863 
z
" transform="scale(0.015625)"/>
      <path id="DejaVuSans-Bold-79" d="M 78 3500 
L 1197 3500 
L 2138 1125 
L 2938 3500 
L 4056 3500 
L 2584 -331 
Q 2363 -916 2067 -1148 
Q 1772 -1381 1288 -1381 
L 641 -1381 
L 641 -647 
L 991 -647 
Q 1275 -647 1404 -556 
Q 1534 -466 1606 -231 
L 1638 -134 
L 78 3500 
z
" transform="scale(0.015625)"/>
      <path id="DejaVuSans-Bold-74" d="M 1759 4494 
L 1759 3500 
L 2913 3500 
L 2913 2700 
L 1759 2700 
L 1759 1216 
Q 1759 972 1856 886 
Q 1953 800 2241 800 
L 2816 800 
L 2816 0 
L 1856 0 
Q 1194 0 917 276 
Q 641 553 641 1216 
L 641 2700 
L 84 2700 
L 84 3500 
L 641 3500 
L 641 4494 
L 1759 4494 
z
" transform="scale(0.015625)"/>
      <path id="DejaVuSans-Bold-63" d="M 3366 3391 
L 3366 2478 
Q 3138 2634 2908 2709 
Q 2678 2784 2431 2784 
Q 1963 2784 1702 2511 
Q 1441 2238 1441 1747 
Q 1441 1256 1702 982 
Q 1963 709 2431 709 
Q 2694 709 2930 787 
Q 3166 866 3366 1019 
L 3366 103 
Q 3103 6 2833 -42 
Q 2563 -91 2291 -91 
Q 1344 -91 809 395 
Q 275 881 275 1747 
Q 275 2613 809 3098 
Q 1344 3584 2291 3584 
Q 2566 3584 2833 3536 
Q 3100 3488 3366 3391 
z
" transform="scale(0.015625)"/>
      <path id="DejaVuSans-Bold-73" d="M 3272 3391 
L 3272 2541 
Q 2913 2691 2578 2766 
Q 2244 2841 1947 2841 
Q 1628 2841 1473 2761 
Q 1319 2681 1319 2516 
Q 1319 2381 1436 2309 
Q 1553 2238 1856 2203 
L 2053 2175 
Q 2913 2066 3209 1816 
Q 3506 1566 3506 1031 
Q 3506 472 3093 190 
Q 2681 -91 1863 -91 
Q 1516 -91 1145 -36 
Q 775 19 384 128 
L 384 978 
Q 719 816 1070 734 
Q 1422 653 1784 653 
Q 2113 653 2278 743 
Q 2444 834 2444 1013 
Q 2444 1163 2330 1236 
Q 2216 1309 1875 1350 
L 1678 1375 
Q 931 1469 631 1722 
Q 331 1975 331 2491 
Q 331 3047 712 3315 
Q 1094 3584 1881 3584 
Q 2191 3584 2531 3537 
Q 2872 3491 3272 3391 
z
" transform="scale(0.015625)"/>
      <path id="DejaVuSans-Bold-45" d="M 588 4666 
L 3834 4666 
L 3834 3756 
L 1791 3756 
L 1791 2888 
L 3713 2888 
L 3713 1978 
L 1791 1978 
L 1791 909 
L 3903 909 
L 3903 0 
L 588 0 
L 588 4666 
z
" transform="scale(0.015625)"/>
      <path id="DejaVuSans-Bold-67" d="M 2919 594 
Q 2688 288 2409 144 
Q 2131 0 1766 0 
Q 1125 0 706 504 
Q 288 1009 288 1791 
Q 288 2575 706 3076 
Q 1125 3578 1766 3578 
Q 2131 3578 2409 3434 
Q 2688 3291 2919 2981 
L 2919 3500 
L 4044 3500 
L 4044 353 
Q 4044 -491 3511 -936 
Q 2978 -1381 1966 -1381 
Q 1638 -1381 1331 -1331 
Q 1025 -1281 716 -1178 
L 716 -306 
Q 1009 -475 1290 -558 
Q 1572 -641 1856 -641 
Q 2406 -641 2662 -400 
Q 2919 -159 2919 353 
L 2919 594 
z
M 2181 2772 
Q 1834 2772 1640 2515 
Q 1447 2259 1447 1791 
Q 1447 1309 1634 1061 
Q 1822 813 2181 813 
Q 2531 813 2725 1069 
Q 2919 1325 2919 1791 
Q 2919 2259 2725 2515 
Q 2531 2772 2181 2772 
z
" transform="scale(0.015625)"/>
      <path id="DejaVuSans-Bold-46" d="M 588 4666 
L 3834 4666 
L 3834 3756 
L 1791 3756 
L 1791 2888 
L 3713 2888 
L 3713 1978 
L 1791 1978 
L 1791 0 
L 588 0 
L 588 4666 
z
" transform="scale(0.015625)"/>
      <path id="DejaVuSans-Bold-77" d="M 225 3500 
L 1313 3500 
L 1900 1088 
L 2491 3500 
L 3425 3500 
L 4013 1113 
L 4603 3500 
L 5691 3500 
L 4769 0 
L 3547 0 
L 2956 2406 
L 2369 0 
L 1147 0 
L 225 3500 
z
" transform="scale(0.015625)"/>
     </defs>
     <use xlink:href="#DejaVuSans-Bold-57"/>
     <use xlink:href="#DejaVuSans-Bold-6f" x="106.677734"/>
     <use xlink:href="#DejaVuSans-Bold-72" x="175.378906"/>
     <use xlink:href="#DejaVuSans-Bold-6b" x="224.695312"/>
     <use xlink:href="#DejaVuSans-Bold-48" x="291.199219"/>
     <use xlink:href="#DejaVuSans-Bold-69" x="374.890625"/>
     <use xlink:href="#DejaVuSans-Bold-76" x="409.167969"/>
     <use xlink:href="#DejaVuSans-Bold-65" x="474.353516"/>
     <use xlink:href="#DejaVuSans-Bold-20" x="542.175781"/>
     <use xlink:href="#DejaVuSans-Bold-41" x="576.990234"/>
     <use xlink:href="#DejaVuSans-Bold-6e" x="654.382812"/>
     <use xlink:href="#DejaVuSans-Bold-61" x="725.574219"/>
     <use xlink:href="#DejaVuSans-Bold-6c" x="793.054688"/>
     <use xlink:href="#DejaVuSans-Bold-79" x="827.332031"/>
     <use xlink:href="#DejaVuSans-Bold-74" x="892.517578"/>
     <use xlink:href="#DejaVuSans-Bold-69" x="940.320312"/>
     <use xlink:href="#DejaVuSans-Bold-63" x="974.597656"/>
     <use xlink:href="#DejaVuSans-Bold-73" x="1033.875"/>
     <use xlink:href="#DejaVuSans-Bold-20" x="1093.396484"/>
     <use xlink:href="#DejaVuSans-Bold-45" x="1128.210938"/>
     <use xlink:href="#DejaVuSans-Bold-6e" x="1196.521484"/>
     <use xlink:href="#DejaVuSans-Bold-67" x="1267.712891"/>
     <use xlink:href="#DejaVuSans-Bold-69" x="1339.294922"/>
     <use xlink:href="#DejaVuSans-Bold-6e" x="1373.572266"/>
     <use xlink:href="#DejaVuSans-Bold-65" x="1444.763672"/>
     <use xlink:href="#DejaVuSans-Bold-20" x="1512.585938"/>
     <use xlink:href="#DejaVuSans-Bold-46" x="1547.400391"/>
     <use xlink:href="#DejaVuSans-Bold-6c" x="1615.710938"/>
     <use xlink:href="#DejaVuSans-Bold-6f" x="1649.988281"/>
     <use xlink:href="#DejaVuSans-Bold-77" x="1718.689453"/>
    </g>
   </g>
   <g id="patch_9">
    <path d="M 31.1274 60.937979 
C 33.195467 60.937979 35.17911 59.770742 36.641454 57.693338 
C 38.103798 55.615934 38.92545 52.797975 38.92545 49.860082 
C 38.92545 46.922189 38.103798 44.10423 36.641454 42.026826 
C 35.17911 39.949422 33.195467 38.782185 31.1274 38.782185 
C 29.059333 38.782185 27.07569 39.949422 25.613346 42.026826 
C 24.151002 44.10423 23.32935 46.922189 23.32935 49.860082 
C 23.32935 52.797975 24.151002 55.615934 25.613346 57.693338 
C 27.07569 59.770742 29.059333 60.937979 31.1274 60.937979 
z
" clip-path="url(#pb6ea5f9695)" style="fill: #f7a21b"/>
   </g>
   <g id="patch_10">
    <path d="M 31.1274 101.127559 
C 33.195467 101.127559 35.17911 99.960322 36.641454 97.882918 
C 38.103798 95.805514 38.92545 92.987555 38.92545 90.049662 
C 38.92545 87.111769 38.103798 84.29381 36.641454 82.216406 
C 35.17911 80.139002 33.195467 78.971765 31.1274 78.971765 
C 29.059333 78.971765 27.07569 80.139002 25.613346 82.216406 
C 24.151002 84.29381 23.32935 87.111769 23.32935 90.049662 
C 23.32935 92.987555 24.151002 95.805514 25.613346 97.882918 
C 27.07569 99.960322 29.059333 101.127559 31.1274 101.127559 
z
" clip-path="url(#pb6ea5f9695)" style="fill: #f7a21b"/>
   </g>
   <g id="patch_11">
    <path d="M 31.1274 141.317139 
C 33.195467 141.317139 35.17911 140.149902 36.641454 138.072498 
C 38.103798 135.995094 38.92545 133.177135 38.92545 130.239242 
C 38.92545 127.301349 38.103798 124.48339 36.641454 122.405986 
C 35.17911 120.328582 33.195467 119.161345 31.1274 119.161345 
C 29.059333 119.161345 27.07569 120.328582 25.613346 122.405986 
C 24.151002 124.48339 23.32935 127.301349 23.32935 130.239242 
C 23.32935 133.177135 24.151002 135.995094 25.613346 138.072498 
C 27.07569 140.149902 29.059333 141.317139 31.1274 141.317139 
z
" clip-path="url(#pb6ea5f9695)" style="fill: #f7a21b"/>
   </g>
   <g id="patch_12">
    <path d="M 31.1274 181.506719 
C 33.195467 181.506719 35.17911 180.339482 36.641454 178.262078 
C 38.103798 176.184674 38.92545 173.366715 38.92545 170.428822 
C 38.92545 167.490929 38.103798 164.67297 36.641454 162.595566 
C 35.17911 160.518162 33.195467 159.350925 31.1274 159.350925 
C 29.059333 159.350925 27.07569 160.518162 25.613346 162.595566 
C 24.151002 164.67297 23.32935 167.490929 23.32935 170.428822 
C 23.32935 173.366715 24.151002 176.184674 25.613346 178.262078 
C 27.07569 180.339482 29.059333 181.506719 31.1274 181.506719 
z
" clip-path="url(#pb6ea5f9695)" style="fill: #f7a21b"/>
   </g>
   <g id="text_2">
    <!-- 1 -->
    <g style="fill: #162032" transform="translate(27.126658 53.033363) scale(0.115 -0.115)">
     <defs>
      <path id="DejaVuSans-Bold-31" d="M 750 831 
L 1813 831 
L 1813 3847 
L 722 3622 
L 722 4441 
L 1806 4666 
L 2950 4666 
L 2950 831 
L 4013 831 
L 4013 0 
L 750 0 
L 750 831 
z
" transform="scale(0.015625)"/>
     </defs>
     <use xlink:href="#DejaVuSans-Bold-31"/>
    </g>
   </g>
   <g id="text_3">
    <!-- Logbook Entries -->
    <g style="fill: #f4f6fa" transform="translate(64.8585 52.757426) scale(0.105 -0.105)">
     <defs>
      <path id="DejaVuSans-4c" d="M 628 4666 
L 1259 4666 
L 1259 531 
L 3531 531 
L 3531 0 
L 628 0 
L 628 4666 
z
" transform="scale(0.015625)"/>
      <path id="DejaVuSans-6f" d="M 1959 3097 
Q 1497 3097 1228 2736 
Q 959 2375 959 1747 
Q 959 1119 1226 758 
Q 1494 397 1959 397 
Q 2419 397 2687 759 
Q 2956 1122 2956 1747 
Q 2956 2369 2687 2733 
Q 2419 3097 1959 3097 
z
M 1959 3584 
Q 2709 3584 3137 3096 
Q 3566 2609 3566 1747 
Q 3566 888 3137 398 
Q 2709 -91 1959 -91 
Q 1206 -91 779 398 
Q 353 888 353 1747 
Q 353 2609 779 3096 
Q 1206 3584 1959 3584 
z
" transform="scale(0.015625)"/>
      <path id="DejaVuSans-67" d="M 2906 1791 
Q 2906 2416 2648 2759 
Q 2391 3103 1925 3103 
Q 1463 3103 1205 2759 
Q 947 2416 947 1791 
Q 947 1169 1205 825 
Q 1463 481 1925 481 
Q 2391 481 2648 825 
Q 2906 1169 2906 1791 
z
M 3481 434 
Q 3481 -459 3084 -895 
Q 2688 -1331 1869 -1331 
Q 1566 -1331 1297 -1286 
Q 1028 -1241 775 -1147 
L 775 -588 
Q 1028 -725 1275 -790 
Q 1522 -856 1778 -856 
Q 2344 -856 2625 -561 
Q 2906 -266 2906 331 
L 2906 616 
Q 2728 306 2450 153 
Q 2172 0 1784 0 
Q 1141 0 747 490 
Q 353 981 353 1791 
Q 353 2603 747 3093 
Q 1141 3584 1784 3584 
Q 2172 3584 2450 3431 
Q 2728 3278 2906 2969 
L 2906 3500 
L 3481 3500 
L 3481 434 
z
" transform="scale(0.015625)"/>
      <path id="DejaVuSans-62" d="M 3116 1747 
Q 3116 2381 2855 2742 
Q 2594 3103 2138 3103 
Q 1681 3103 1420 2742 
Q 1159 2381 1159 1747 
Q 1159 1113 1420 752 
Q 1681 391 2138 391 
Q 2594 391 2855 752 
Q 3116 1113 3116 1747 
z
M 1159 2969 
Q 1341 3281 1617 3432 
Q 1894 3584 2278 3584 
Q 2916 3584 3314 3078 
Q 3713 2572 3713 1747 
Q 3713 922 3314 415 
Q 2916 -91 2278 -91 
Q 1894 -91 1617 61 
Q 1341 213 1159 525 
L 1159 0 
L 581 0 
L 581 4863 
L 1159 4863 
L 1159 2969 
z
" transform="scale(0.015625)"/>
      <path id="DejaVuSans-6b" d="M 581 4863 
L 1159 4863 
L 1159 1991 
L 2875 3500 
L 3609 3500 
L 1753 1863 
L 3688 0 
L 2938 0 
L 1159 1709 
L 1159 0 
L 581 0 
L 581 4863 
z
" transform="scale(0.015625)"/>
      <path id="DejaVuSans-20" transform="scale(0.015625)"/>
      <path id="DejaVuSans-45" d="M 628 4666 
L 3578 4666 
L 3578 4134 
L 1259 4134 
L 1259 2753 
L 3481 2753 
L 3481 2222 
L 1259 2222 
L 1259 531 
L 3634 531 
L 3634 0 
L 628 0 
L 628 4666 
z
" transform="scale(0.015625)"/>
      <path id="DejaVuSans-6e" d="M 3513 2113 
L 3513 0 
L 2938 0 
L 2938 2094 
Q 2938 2591 2744 2837 
Q 2550 3084 2163 3084 
Q 1697 3084 1428 2787 
Q 1159 2491 1159 1978 
L 1159 0 
L 581 0 
L 581 3500 
L 1159 3500 
L 1159 2956 
Q 1366 3272 1645 3428 
Q 1925 3584 2291 3584 
Q 2894 3584 3203 3211 
Q 3513 2838 3513 2113 
z
" transform="scale(0.015625)"/>
      <path id="DejaVuSans-74" d="M 1172 4494 
L 1172 3500 
L 2356 3500 
L 2356 3053 
L 1172 3053 
L 1172 1153 
Q 1172 725 1289 603 
Q 1406 481 1766 481 
L 2356 481 
L 2356 0 
L 1766 0 
Q 1100 0 847 248 
Q 594 497 594 1153 
L 594 3053 
L 172 3053 
L 172 3500 
L 594 3500 
L 594 4494 
L 1172 4494 
z
" transform="scale(0.015625)"/>
      <path id="DejaVuSans-72" d="M 2631 2963 
Q 2534 3019 2420 3045 
Q 2306 3072 2169 3072 
Q 1681 3072 1420 2755 
Q 1159 2438 1159 1844 
L 1159 0 
L 581 0 
L 581 3500 
L 1159 3500 
L 1159 2956 
Q 1341 3275 1631 3429 
Q 1922 3584 2338 3584 
Q 2397 3584 2469 3576 
Q 2541 3569 2628 3553 
L 2631 2963 
z
" transform="scale(0.015625)"/>
      <path id="DejaVuSans-69" d="M 603 3500 
L 1178 3500 
L 1178 0 
L 603 0 
L 603 3500 
z
M 603 4863 
L 1178 4863 
L 1178 4134 
L 603 4134 
L 603 4863 
z
" transform="scale(0.015625)"/>
      <path id="DejaVuSans-65" d="M 3597 1894 
L 3597 1613 
L 953 1613 
Q 991 1019 1311 708 
Q 1631 397 2203 397 
Q 2534 397 2845 478 
Q 3156 559 3463 722 
L 3463 178 
Q 3153 47 2828 -22 
Q 2503 -91 2169 -91 
Q 1331 -91 842 396 
Q 353 884 353 1716 
Q 353 2575 817 3079 
Q 1281 3584 2069 3584 
Q 2775 3584 3186 3129 
Q 3597 2675 3597 1894 
z
M 3022 2063 
Q 3016 2534 2758 2815 
Q 2500 3097 2075 3097 
Q 1594 3097 1305 2825 
Q 1016 2553 972 2059 
L 3022 2063 
z
" transform="scale(0.015625)"/>
      <path id="DejaVuSans-73" d="M 2834 3397 
L 2834 2853 
Q 2591 2978 2328 3040 
Q 2066 3103 1784 3103 
Q 1356 3103 1142 2972 
Q 928 2841 928 2578 
Q 928 2378 1081 2264 
Q 1234 2150 1697 2047 
L 1894 2003 
Q 2506 1872 2764 1633 
Q 3022 1394 3022 966 
Q 3022 478 2636 193 
Q 2250 -91 1575 -91 
Q 1294 -91 989 -36 
Q 684 19 347 128 
L 347 722 
Q 666 556 975 473 
Q 1284 391 1588 391 
Q 1994 391 2212 530 
Q 2431 669 2431 922 
Q 2431 1156 2273 1281 
Q 2116 1406 1581 1522 
L 1381 1569 
Q 847 1681 609 1914 
Q 372 2147 372 2553 
Q 372 3047 722 3315 
Q 1072 3584 1716 3584 
Q 2034 3584 2315 3537 
Q 2597 3491 2834 3397 
z
" transform="scale(0.015625)"/>
     </defs>
     <use xlink:href="#DejaVuSans-4c"/>
     <use xlink:href="#DejaVuSans-6f" x="53.962891"/>
     <use xlink:href="#DejaVuSans-67" x="115.144531"/>
     <use xlink:href="#DejaVuSans-62" x="178.621094"/>
     <use xlink:href="#DejaVuSans-6f" x="242.097656"/>
     <use xlink:href="#DejaVuSans-6f" x="303.279297"/>
     <use xlink:href="#DejaVuSans-6b" x="364.460938"/>
     <use xlink:href="#DejaVuSans-20" x="422.371094"/>
     <use xlink:href="#DejaVuSans-45" x="454.158203"/>
     <use xlink:href="#DejaVuSans-6e" x="517.341797"/>
     <use xlink:href="#DejaVuSans-74" x="580.720703"/>
     <use xlink:href="#DejaVuSans-72" x="619.929688"/>
     <use xlink:href="#DejaVuSans-69" x="661.042969"/>
     <use xlink:href="#DejaVuSans-65" x="688.826172"/>
     <use xlink:href="#DejaVuSans-73" x="750.349609"/>
    </g>
   </g>
   <g id="text_4">
    <!-- 2 -->
    <g style="fill: #162032" transform="translate(27.126658 93.222943) scale(0.115 -0.115)">
     <defs>
      <path id="DejaVuSans-Bold-32" d="M 1844 884 
L 3897 884 
L 3897 0 
L 506 0 
L 506 884 
L 2209 2388 
Q 2438 2594 2547 2791 
Q 2656 2988 2656 3200 
Q 2656 3528 2436 3728 
Q 2216 3928 1850 3928 
Q 1569 3928 1234 3808 
Q 900 3688 519 3450 
L 519 4475 
Q 925 4609 1322 4679 
Q 1719 4750 2100 4750 
Q 2938 4750 3402 4381 
Q 3866 4013 3866 3353 
Q 3866 2972 3669 2642 
Q 3472 2313 2841 1759 
L 1844 884 
z
" transform="scale(0.015625)"/>
     </defs>
     <use xlink:href="#DejaVuSans-Bold-32"/>
    </g>
   </g>
   <g id="text_5">
    <!-- PM Completions -->
    <g style="fill: #f4f6fa" transform="translate(64.8585 92.947006) scale(0.105 -0.105)">
     <defs>
      <path id="DejaVuSans-50" d="M 1259 4147 
L 1259 2394 
L 2053 2394 
Q 2494 2394 2734 2622 
Q 2975 2850 2975 3272 
Q 2975 3691 2734 3919 
Q 2494 4147 2053 4147 
L 1259 4147 
z
M 628 4666 
L 2053 4666 
Q 2838 4666 3239 4311 
Q 3641 3956 3641 3272 
Q 3641 2581 3239 2228 
Q 2838 1875 2053 1875 
L 1259 1875 
L 1259 0 
L 628 0 
L 628 4666 
z
" transform="scale(0.015625)"/>
      <path id="DejaVuSans-4d" d="M 628 4666 
L 1569 4666 
L 2759 1491 
L 3956 4666 
L 4897 4666 
L 4897 0 
L 4281 0 
L 4281 4097 
L 3078 897 
L 2444 897 
L 1241 4097 
L 1241 0 
L 628 0 
L 628 4666 
z
" transform="scale(0.015625)"/>
      <path id="DejaVuSans-43" d="M 4122 4306 
L 4122 3641 
Q 3803 3938 3442 4084 
Q 3081 4231 2675 4231 
Q 1875 4231 1450 3742 
Q 1025 3253 1025 2328 
Q 1025 1406 1450 917 
Q 1875 428 2675 428 
Q 3081 428 3442 575 
Q 3803 722 4122 1019 
L 4122 359 
Q 3791 134 3420 21 
Q 3050 -91 2638 -91 
Q 1578 -91 968 557 
Q 359 1206 359 2328 
Q 359 3453 968 4101 
Q 1578 4750 2638 4750 
Q 3056 4750 3426 4639 
Q 3797 4528 4122 4306 
z
" transform="scale(0.015625)"/>
      <path id="DejaVuSans-6d" d="M 3328 2828 
Q 3544 3216 3844 3400 
Q 4144 3584 4550 3584 
Q 5097 3584 5394 3201 
Q 5691 2819 5691 2113 
L 5691 0 
L 5113 0 
L 5113 2094 
Q 5113 2597 4934 2840 
Q 4756 3084 4391 3084 
Q 3944 3084 3684 2787 
Q 3425 2491 3425 1978 
L 3425 0 
L 2847 0 
L 2847 2094 
Q 2847 2600 2669 2842 
Q 2491 3084 2119 3084 
Q 1678 3084 1418 2786 
Q 1159 2488 1159 1978 
L 1159 0 
L 581 0 
L 581 3500 
L 1159 3500 
L 1159 2956 
Q 1356 3278 1631 3431 
Q 1906 3584 2284 3584 
Q 2666 3584 2933 3390 
Q 3200 3197 3328 2828 
z
" transform="scale(0.015625)"/>
      <path id="DejaVuSans-70" d="M 1159 525 
L 1159 -1331 
L 581 -1331 
L 581 3500 
L 1159 3500 
L 1159 2969 
Q 1341 3281 1617 3432 
Q 1894 3584 2278 3584 
Q 2916 3584 3314 3078 
Q 3713 2572 3713 1747 
Q 3713 922 3314 415 
Q 2916 -91 2278 -91 
Q 1894 -91 1617 61 
Q 1341 213 1159 525 
z
M 3116 1747 
Q 3116 2381 2855 2742 
Q 2594 3103 2138 3103 
Q 1681 3103 1420 2742 
Q 1159 2381 1159 1747 
Q 1159 1113 1420 752 
Q 1681 391 2138 391 
Q 2594 391 2855 752 
Q 3116 1113 3116 1747 
z
" transform="scale(0.015625)"/>
      <path id="DejaVuSans-6c" d="M 603 4863 
L 1178 4863 
L 1178 0 
L 603 0 
L 603 4863 
z
" transform="scale(0.015625)"/>
     </defs>
     <use xlink:href="#DejaVuSans-50"/>
     <use xlink:href="#DejaVuSans-4d" x="60.302734"/>
     <use xlink:href="#DejaVuSans-20" x="146.582031"/>
     <use xlink:href="#DejaVuSans-43" x="178.369141"/>
     <use xlink:href="#DejaVuSans-6f" x="248.193359"/>
     <use xlink:href="#DejaVuSans-6d" x="309.375"/>
     <use xlink:href="#DejaVuSans-70" x="406.787109"/>
     <use xlink:href="#DejaVuSans-6c" x="470.263672"/>
     <use xlink:href="#DejaVuSans-65" x="498.046875"/>
     <use xlink:href="#DejaVuSans-74" x="559.570312"/>
     <use xlink:href="#DejaVuSans-69" x="598.779297"/>
     <use xlink:href="#DejaVuSans-6f" x="626.5625"/>
     <use xlink:href="#DejaVuSans-6e" x="687.744141"/>
     <use xlink:href="#DejaVuSans-73" x="751.123047"/>
    </g>
   </g>
   <g id="text_6">
    <!-- 3 -->
    <g style="fill: #162032" transform="translate(27.126658 133.412523) scale(0.115 -0.115)">
     <defs>
      <path id="DejaVuSans-Bold-33" d="M 2981 2516 
Q 3453 2394 3698 2092 
Q 3944 1791 3944 1325 
Q 3944 631 3412 270 
Q 2881 -91 1863 -91 
Q 1503 -91 1142 -33 
Q 781 25 428 141 
L 428 1069 
Q 766 900 1098 814 
Q 1431 728 1753 728 
Q 2231 728 2486 893 
Q 2741 1059 2741 1369 
Q 2741 1688 2480 1852 
Q 2219 2016 1709 2016 
L 1228 2016 
L 1228 2791 
L 1734 2791 
Q 2188 2791 2409 2933 
Q 2631 3075 2631 3366 
Q 2631 3634 2415 3781 
Q 2200 3928 1806 3928 
Q 1516 3928 1219 3862 
Q 922 3797 628 3669 
L 628 4550 
Q 984 4650 1334 4700 
Q 1684 4750 2022 4750 
Q 2931 4750 3382 4451 
Q 3834 4153 3834 3553 
Q 3834 3144 3618 2883 
Q 3403 2622 2981 2516 
z
" transform="scale(0.015625)"/>
     </defs>
     <use xlink:href="#DejaVuSans-Bold-33"/>
    </g>
   </g>
   <g id="text_7">
    <!-- MTBF/MTTR Calculation -->
    <g style="fill: #f4f6fa" transform="translate(64.8585 133.136586) scale(0.105 -0.105)">
     <defs>
      <path id="DejaVuSans-54" d="M -19 4666 
L 3928 4666 
L 3928 4134 
L 2272 4134 
L 2272 0 
L 1638 0 
L 1638 4134 
L -19 4134 
L -19 4666 
z
" transform="scale(0.015625)"/>
      <path id="DejaVuSans-42" d="M 1259 2228 
L 1259 519 
L 2272 519 
Q 2781 519 3026 730 
Q 3272 941 3272 1375 
Q 3272 1813 3026 2020 
Q 2781 2228 2272 2228 
L 1259 2228 
z
M 1259 4147 
L 1259 2741 
L 2194 2741 
Q 2656 2741 2882 2914 
Q 3109 3088 3109 3444 
Q 3109 3797 2882 3972 
Q 2656 4147 2194 4147 
L 1259 4147 
z
M 628 4666 
L 2241 4666 
Q 2963 4666 3353 4366 
Q 3744 4066 3744 3513 
Q 3744 3084 3544 2831 
Q 3344 2578 2956 2516 
Q 3422 2416 3680 2098 
Q 3938 1781 3938 1306 
Q 3938 681 3513 340 
Q 3088 0 2303 0 
L 628 0 
L 628 4666 
z
" transform="scale(0.015625)"/>
      <path id="DejaVuSans-46" d="M 628 4666 
L 3309 4666 
L 3309 4134 
L 1259 4134 
L 1259 2759 
L 3109 2759 
L 3109 2228 
L 1259 2228 
L 1259 0 
L 628 0 
L 628 4666 
z
" transform="scale(0.015625)"/>
      <path id="DejaVuSans-2f" d="M 1625 4666 
L 2156 4666 
L 531 -594 
L 0 -594 
L 1625 4666 
z
" transform="scale(0.015625)"/>
      <path id="DejaVuSans-52" d="M 2841 2188 
Q 3044 2119 3236 1894 
Q 3428 1669 3622 1275 
L 4263 0 
L 3584 0 
L 2988 1197 
Q 2756 1666 2539 1819 
Q 2322 1972 1947 1972 
L 1259 1972 
L 1259 0 
L 628 0 
L 628 4666 
L 2053 4666 
Q 2853 4666 3247 4331 
Q 3641 3997 3641 3322 
Q 3641 2881 3436 2590 
Q 3231 2300 2841 2188 
z
M 1259 4147 
L 1259 2491 
L 2053 2491 
Q 2509 2491 2742 2702 
Q 2975 2913 2975 3322 
Q 2975 3731 2742 3939 
Q 2509 4147 2053 4147 
L 1259 4147 
z
" transform="scale(0.015625)"/>
      <path id="DejaVuSans-61" d="M 2194 1759 
Q 1497 1759 1228 1600 
Q 959 1441 959 1056 
Q 959 750 1161 570 
Q 1363 391 1709 391 
Q 2188 391 2477 730 
Q 2766 1069 2766 1631 
L 2766 1759 
L 2194 1759 
z
M 3341 1997 
L 3341 0 
L 2766 0 
L 2766 531 
Q 2569 213 2275 61 
Q 1981 -91 1556 -91 
Q 1019 -91 701 211 
Q 384 513 384 1019 
Q 384 1609 779 1909 
Q 1175 2209 1959 2209 
L 2766 2209 
L 2766 2266 
Q 2766 2663 2505 2880 
Q 2244 3097 1772 3097 
Q 1472 3097 1187 3025 
Q 903 2953 641 2809 
L 641 3341 
Q 956 3463 1253 3523 
Q 1550 3584 1831 3584 
Q 2591 3584 2966 3190 
Q 3341 2797 3341 1997 
z
" transform="scale(0.015625)"/>
      <path id="DejaVuSans-63" d="M 3122 3366 
L 3122 2828 
Q 2878 2963 2633 3030 
Q 2388 3097 2138 3097 
Q 1578 3097 1268 2742 
Q 959 2388 959 1747 
Q 959 1106 1268 751 
Q 1578 397 2138 397 
Q 2388 397 2633 464 
Q 2878 531 3122 666 
L 3122 134 
Q 2881 22 2623 -34 
Q 2366 -91 2075 -91 
Q 1284 -91 818 406 
Q 353 903 353 1747 
Q 353 2603 823 3093 
Q 1294 3584 2113 3584 
Q 2378 3584 2631 3529 
Q 2884 3475 3122 3366 
z
" transform="scale(0.015625)"/>
      <path id="DejaVuSans-75" d="M 544 1381 
L 544 3500 
L 1119 3500 
L 1119 1403 
Q 1119 906 1312 657 
Q 1506 409 1894 409 
Q 2359 409 2629 706 
Q 2900 1003 2900 1516 
L 2900 3500 
L 3475 3500 
L 3475 0 
L 2900 0 
L 2900 538 
Q 2691 219 2414 64 
Q 2138 -91 1772 -91 
Q 1169 -91 856 284 
Q 544 659 544 1381 
z
M 1991 3584 
L 1991 3584 
z
" transform="scale(0.015625)"/>
     </defs>
     <use xlink:href="#DejaVuSans-4d"/>
     <use xlink:href="#DejaVuSans-54" x="86.279297"/>
     <use xlink:href="#DejaVuSans-42" x="147.363281"/>
     <use xlink:href="#DejaVuSans-46" x="215.966797"/>
     <use xlink:href="#DejaVuSans-2f" x="273.486328"/>
     <use xlink:href="#DejaVuSans-4d" x="307.177734"/>
     <use xlink:href="#DejaVuSans-54" x="393.457031"/>
     <use xlink:href="#DejaVuSans-54" x="452.791016"/>
     <use xlink:href="#DejaVuSans-52" x="513.875"/>
     <use xlink:href="#DejaVuSans-20" x="583.357422"/>
     <use xlink:href="#DejaVuSans-43" x="615.144531"/>
     <use xlink:href="#DejaVuSans-61" x="684.96875"/>
     <use xlink:href="#DejaVuSans-6c" x="746.248047"/>
     <use xlink:href="#DejaVuSans-63" x="774.03125"/>
     <use xlink:href="#DejaVuSans-75" x="829.011719"/>
     <use xlink:href="#DejaVuSans-6c" x="892.390625"/>
     <use xlink:href="#DejaVuSans-61" x="920.173828"/>
     <use xlink:href="#DejaVuSans-74" x="981.453125"/>
     <use xlink:href="#DejaVuSans-69" x="1020.662109"/>
     <use xlink:href="#DejaVuSans-6f" x="1048.445312"/>
     <use xlink:href="#DejaVuSans-6e" x="1109.626953"/>
    </g>
   </g>
   <g id="text_8">
    <!-- 4 -->
    <g style="fill: #162032" transform="translate(27.126658 173.602103) scale(0.115 -0.115)">
     <defs>
      <path id="DejaVuSans-Bold-34" d="M 2356 3675 
L 1038 1722 
L 2356 1722 
L 2356 3675 
z
M 2156 4666 
L 3494 4666 
L 3494 1722 
L 4159 1722 
L 4159 850 
L 3494 850 
L 3494 0 
L 2356 0 
L 2356 850 
L 288 850 
L 288 1881 
L 2156 4666 
z
" transform="scale(0.015625)"/>
     </defs>
     <use xlink:href="#DejaVuSans-Bold-34"/>
    </g>
   </g>
   <g id="text_9">
    <!-- Live KPI Tiles -->
    <g style="fill: #f4f6fa" transform="translate(64.8585 173.326166) scale(0.105 -0.105)">
     <defs>
      <path id="DejaVuSans-76" d="M 191 3500 
L 800 3500 
L 1894 563 
L 2988 3500 
L 3597 3500 
L 2284 0 
L 1503 0 
L 191 3500 
z
" transform="scale(0.015625)"/>
      <path id="DejaVuSans-4b" d="M 628 4666 
L 1259 4666 
L 1259 2694 
L 3353 4666 
L 4166 4666 
L 1850 2491 
L 4331 0 
L 3500 0 
L 1259 2247 
L 1259 0 
L 628 0 
L 628 4666 
z
" transform="scale(0.015625)"/>
      <path id="DejaVuSans-49" d="M 628 4666 
L 1259 4666 
L 1259 0 
L 628 0 
L 628 4666 
z
" transform="scale(0.015625)"/>
     </defs>
     <use xlink:href="#DejaVuSans-4c"/>
     <use xlink:href="#DejaVuSans-69" x="55.712891"/>
     <use xlink:href="#DejaVuSans-76" x="83.496094"/>
     <use xlink:href="#DejaVuSans-65" x="142.675781"/>
     <use xlink:href="#DejaVuSans-20" x="204.199219"/>
     <use xlink:href="#DejaVuSans-4b" x="235.986328"/>
     <use xlink:href="#DejaVuSans-50" x="301.5625"/>
     <use xlink:href="#DejaVuSans-49" x="361.865234"/>
     <use xlink:href="#DejaVuSans-20" x="391.357422"/>
     <use xlink:href="#DejaVuSans-54" x="423.144531"/>
     <use xlink:href="#DejaVuSans-69" x="481.103516"/>
     <use xlink:href="#DejaVuSans-6c" x="508.886719"/>
     <use xlink:href="#DejaVuSans-65" x="536.669922"/>
     <use xlink:href="#DejaVuSans-73" x="598.193359"/>
    </g>
   </g>
  </g>
 </g>
 <defs>
  <clipPath id="pb6ea5f9695">
   <rect x="8.64" y="8.64" width="362.7" height="226.1952"/>
  </clipPath>
 </defs>
</svg>
